<svg width="98" height="75" viewBox="0 0 98 75" fill="none" xmlns="http://www.w3.org/2000/svg">
<path d="M32.5669 69.4817C43.7768 69.4817 52.8643 67.3908 52.8643 64.8114C52.8643 62.2321 43.7768 60.1411 32.5669 60.1411C21.357 60.1411 12.2695 62.2321 12.2695 64.8114C12.2695 67.3908 21.357 69.4817 32.5669 69.4817Z" fill="#92E3A9"/>
<path opacity="0.53" d="M32.5669 69.4817C43.7768 69.4817 52.8643 67.3908 52.8643 64.8114C52.8643 62.2321 43.7768 60.1411 32.5669 60.1411C21.357 60.1411 12.2695 62.2321 12.2695 64.8114C12.2695 67.3908 21.357 69.4817 32.5669 69.4817Z" fill="white"/>
<path d="M89.6157 64.6096C89.6157 65.3939 80.8634 66.0311 70.0661 66.0311C59.2689 66.0311 50.5166 65.4002 50.5166 64.6096C50.5166 63.8189 59.2689 63.1881 70.0661 63.1881C80.8634 63.1881 89.6157 63.8232 89.6157 64.6096Z" fill="#92E3A9"/>
<path opacity="0.53" d="M89.6157 64.6096C89.6157 65.3939 80.8634 66.0311 70.0661 66.0311C59.2689 66.0311 50.5166 65.4002 50.5166 64.6096C50.5166 63.8189 59.2689 63.1881 70.0661 63.1881C80.8634 63.1881 89.6157 63.8232 89.6157 64.6096Z" fill="white"/>
<path d="M51.8785 54.6213L87.3416 54.6213C88.9338 54.6213 90.2246 53.5688 90.2246 52.2704L90.2246 3.35091C90.2246 2.05252 88.9338 0.999981 87.3416 0.999981L51.8785 0.999981C50.2863 0.999981 48.9955 2.05252 48.9955 3.35091L48.9955 52.2704C48.9955 53.5688 50.2863 54.6213 51.8785 54.6213Z" fill="#263238" stroke="#263238" stroke-linecap="round" stroke-linejoin="round"/>
<path d="M85.9518 2.82947H53.2661C52.2136 2.82947 51.3604 3.5252 51.3604 4.38344V51.238C51.3604 52.0962 52.2136 52.792 53.2661 52.792H85.9518C87.0042 52.792 87.8574 52.0962 87.8574 51.238V4.38344C87.8574 3.5252 87.0042 2.82947 85.9518 2.82947Z" fill="white"/>
<mask id="mask0_132_22508" style="mask-type:luminance" maskUnits="userSpaceOnUse" x="51" y="2" width="37" height="51">
<path d="M85.9527 2.82935H53.267C52.2145 2.82935 51.3613 3.52508 51.3613 4.38331V51.2379C51.3613 52.0961 52.2145 52.7918 53.267 52.7918H85.9527C87.0052 52.7918 87.8584 52.0961 87.8584 51.2379V4.38331C87.8584 3.52508 87.0052 2.82935 85.9527 2.82935Z" fill="white"/>
</mask>
<g mask="url(#mask0_132_22508)">
<path d="M51.3613 34.6531V51.2378C51.3613 51.65 51.5621 52.0452 51.9195 52.3367C52.2769 52.6281 52.7616 52.7918 53.267 52.7918H85.9527C86.4582 52.7918 86.9429 52.6281 87.3003 52.3367C87.6577 52.0452 87.8584 51.65 87.8584 51.2378V34.6531H51.3613Z" fill="#92E3A9"/>
<path opacity="0.53" d="M51.3613 34.6531V51.2378C51.3613 51.65 51.5621 52.0452 51.9195 52.3367C52.2769 52.6281 52.7616 52.7918 53.267 52.7918H85.9527C86.4582 52.7918 86.9429 52.6281 87.3003 52.3367C87.6577 52.0452 87.8584 51.65 87.8584 51.2378V34.6531H51.3613Z" fill="white"/>
<path d="M69.4817 23.1845C74.3952 23.1845 78.3784 19.9365 78.3784 15.9298C78.3784 11.9232 74.3952 8.67517 69.4817 8.67517C64.5681 8.67517 60.585 11.9232 60.585 15.9298C60.585 19.9365 64.5681 23.1845 69.4817 23.1845Z" fill="#92E3A9"/>
<path opacity="0.53" d="M69.4817 23.1845C74.3952 23.1845 78.3784 19.9365 78.3784 15.9298C78.3784 11.9232 74.3952 8.67517 69.4817 8.67517C64.5681 8.67517 60.585 11.9232 60.585 15.9298C60.585 19.9365 64.5681 23.1845 69.4817 23.1845Z" fill="white"/>
<path d="M72.2733 17.9947C71.9801 17.9961 71.6956 18.0756 71.4628 18.2209C71.2301 18.3663 71.0619 18.5696 70.9839 18.8H67.4587C67.3952 18.6137 67.2726 18.4443 67.1033 18.3088C66.934 18.1733 66.724 18.0766 66.4943 18.0283V17.7003H72.5389C72.6226 17.7009 72.704 17.6774 72.7686 17.634C72.8332 17.5905 72.877 17.5298 72.8922 17.4627L73.6039 14.4094C73.6138 14.3671 73.6121 14.3235 73.5989 14.2817C73.5857 14.24 73.5613 14.2012 73.5276 14.168C73.4938 14.1348 73.4515 14.1082 73.4036 14.0899C73.3557 14.0717 73.3035 14.0623 73.2506 14.0624H66.5072V12.6893C66.5068 12.6265 66.4815 12.5655 66.435 12.5155C66.3885 12.4654 66.3233 12.429 66.2493 12.4117L64.2946 11.9029C64.2485 11.8878 64.1992 11.8806 64.1496 11.8817C64.0999 11.8829 64.0512 11.8924 64.0062 11.9096C63.9613 11.9268 63.9212 11.9514 63.8885 11.9818C63.8558 12.0122 63.8311 12.0478 63.816 12.0864C63.8009 12.1249 63.7957 12.1656 63.8007 12.2059C63.8057 12.2461 63.8209 12.2851 63.8453 12.3204C63.8696 12.3557 63.9026 12.3865 63.9422 12.4109C63.9818 12.4353 64.0271 12.4527 64.0754 12.4622L65.7825 12.9038V18.0409C65.5581 18.0955 65.355 18.1968 65.1933 18.3349C65.0316 18.473 64.9168 18.6432 64.8604 18.8285C64.804 19.0138 64.8079 19.208 64.8716 19.3917C64.9354 19.5755 65.0568 19.7425 65.2239 19.8762C65.3911 20.01 65.5981 20.1059 65.8246 20.1545C66.0511 20.203 66.2892 20.2026 66.5154 20.1531C66.7416 20.1037 66.948 20.007 67.1144 19.8726C67.2807 19.7382 67.4012 19.5707 67.4639 19.3867H70.9813C71.0486 19.5839 71.1822 19.7618 71.367 19.9003C71.5518 20.0389 71.7803 20.1325 72.0269 20.1707C72.2735 20.2089 72.5283 20.1901 72.7625 20.1164C72.9967 20.0428 73.201 19.9172 73.3522 19.7539C73.5035 19.5905 73.5958 19.396 73.6186 19.1922C73.6414 18.9883 73.5939 18.7834 73.4814 18.6004C73.369 18.4174 73.196 18.2637 72.982 18.1567C72.7681 18.0497 72.5217 17.9935 72.2707 17.9947H72.2733ZM68.1472 14.6491H69.1787V17.1136H68.1472V14.6491ZM69.9008 14.6491H70.9323V17.1136H69.9008V14.6491ZM72.25 17.1157H71.6518V14.6491H72.8251L72.25 17.1157ZM67.4278 14.6491V17.1136H66.5072V14.6491H67.4278ZM66.1693 19.6054C66.0449 19.6054 65.9232 19.5753 65.8198 19.5189C65.7163 19.4626 65.6357 19.3824 65.588 19.2887C65.5404 19.1949 65.5279 19.0918 65.5522 18.9922C65.5765 18.8927 65.6364 18.8013 65.7244 18.7295C65.8124 18.6578 65.9245 18.6089 66.0466 18.5891C66.1687 18.5693 66.2952 18.5795 66.4101 18.6183C66.5251 18.6571 66.6234 18.7229 66.6925 18.8073C66.7617 18.8917 66.7986 18.9909 66.7986 19.0923C66.7986 19.1602 66.782 19.2275 66.7499 19.2901C66.7178 19.3528 66.6708 19.4097 66.6115 19.4574C66.5523 19.5051 66.482 19.5428 66.4048 19.5682C66.3275 19.5936 66.2449 19.6062 66.1616 19.6054H66.1693ZM72.281 19.6054C72.1565 19.6054 72.0349 19.5753 71.9314 19.5189C71.8279 19.4626 71.7473 19.3824 71.6997 19.2887C71.6521 19.1949 71.6396 19.0918 71.6639 18.9922C71.6881 18.8927 71.7481 18.8013 71.8361 18.7295C71.9241 18.6578 72.0362 18.6089 72.1582 18.5891C72.2803 18.5693 72.4068 18.5795 72.5218 18.6183C72.6368 18.6571 72.735 18.7229 72.8042 18.8073C72.8733 18.8917 72.9102 18.9909 72.9102 19.0923C72.9102 19.1602 72.8937 19.2275 72.8616 19.2901C72.8295 19.3528 72.7824 19.4097 72.7232 19.4574C72.6639 19.5051 72.5937 19.5428 72.5164 19.5682C72.4392 19.5936 72.3565 19.6062 72.2733 19.6054H72.281Z" fill="#263238"/>
<path d="M73.9315 15.9277C75.3827 15.9277 76.5592 14.9684 76.5592 13.785C76.5592 12.6016 75.3827 11.6422 73.9315 11.6422C72.4802 11.6422 71.3037 12.6016 71.3037 13.785C71.3037 14.9684 72.4802 15.9277 73.9315 15.9277Z" fill="white" stroke="#263238" stroke-width="2" stroke-miterlimit="10"/>
<path d="M72.7168 13.5389L73.7277 14.6934L75.5483 12.7966" stroke="#263238" stroke-width="3" stroke-linecap="round" stroke-linejoin="round"/>
<path d="M78.5085 27.0746H60.3283C59.9011 27.0746 59.5547 27.357 59.5547 27.7054V31.4905C59.5547 31.8389 59.9011 32.1213 60.3283 32.1213H78.5085C78.9358 32.1213 79.2822 31.8389 79.2822 31.4905V27.7054C79.2822 27.357 78.9358 27.0746 78.5085 27.0746Z" fill="#92E3A9"/>
<path d="M64.56 29.23C64.5194 29.193 64.4973 29.145 64.4981 29.0954V28.2206C64.4981 28.187 64.4981 28.1554 64.4981 28.1323C64.5025 28.1067 64.5094 28.0814 64.5187 28.0566C64.5279 28.0329 64.5438 28.0113 64.5651 27.9935C64.5874 27.9767 64.6138 27.9638 64.6425 27.9557C64.6815 27.9449 64.7225 27.9399 64.7637 27.941H65.2175C65.2837 27.9375 65.35 27.9375 65.4161 27.941C65.4762 27.9488 65.5351 27.9622 65.5915 27.9809C65.6428 27.9987 65.6899 28.0236 65.7307 28.0545C65.7705 28.0895 65.8004 28.1311 65.8184 28.1765C65.8426 28.2317 65.854 28.2902 65.8519 28.3489C65.857 28.4081 65.8447 28.4674 65.816 28.5219C65.7873 28.5764 65.743 28.6245 65.6869 28.6622C65.5497 28.74 65.3843 28.7778 65.2175 28.7695H64.9236V29.0849C64.9244 29.1345 64.9023 29.1825 64.8617 29.2195C64.8433 29.2372 64.8204 29.2515 64.7946 29.2613C64.7687 29.2711 64.7406 29.2762 64.7121 29.2762C64.6841 29.2781 64.656 29.2749 64.6297 29.267C64.6034 29.259 64.5796 29.2463 64.56 29.23ZM65.1428 28.5697C65.1857 28.5725 65.2288 28.5725 65.2717 28.5697C65.3045 28.5642 65.3354 28.5527 65.362 28.536C65.3883 28.5203 65.4081 28.4982 65.4187 28.473C65.4323 28.4398 65.4384 28.4049 65.4367 28.3699C65.4414 28.3417 65.438 28.313 65.4268 28.286C65.4157 28.259 65.397 28.2345 65.3723 28.2143C65.3091 28.1843 65.2363 28.1704 65.1634 28.1744H64.9055V28.5802L65.1428 28.5697Z" fill="black"/>
<path d="M66.1314 29.2026C66.0915 29.1673 66.0607 29.1259 66.0408 29.0808C66.0208 29.0356 66.0122 28.9877 66.0153 28.9398V28.5528C66.011 28.501 66.0273 28.4494 66.0617 28.4057C66.0782 28.3881 66.0999 28.3743 66.1247 28.3655C66.1495 28.3567 66.1766 28.3531 66.2036 28.3552C66.229 28.3534 66.2546 28.3571 66.2777 28.3659C66.3008 28.3748 66.3206 28.3885 66.3351 28.4057C66.3665 28.4503 66.3809 28.5015 66.3764 28.5528V28.9356C66.373 28.9815 66.3915 29.0266 66.4279 29.0617C66.4447 29.0764 66.4651 29.0879 66.4878 29.0955C66.5105 29.1032 66.5349 29.1067 66.5594 29.1059C66.5905 29.106 66.6212 29.1009 66.6496 29.0907C66.6781 29.0806 66.7036 29.0657 66.7245 29.047C66.7699 29.0063 66.794 28.9527 66.7915 28.8977V28.5528C66.7872 28.501 66.8035 28.4494 66.838 28.4057C66.8544 28.3881 66.8761 28.3743 66.9009 28.3655C66.9257 28.3567 66.9528 28.3531 66.9798 28.3552C67.0052 28.3534 67.0308 28.3571 67.0539 28.3659C67.077 28.3748 67.0968 28.3885 67.1113 28.4057C67.1427 28.4503 67.1571 28.5015 67.1526 28.5528V29.1248C67.157 29.1685 67.1414 29.212 67.1087 29.2468C67.0903 29.2611 67.0683 29.272 67.0443 29.2789C67.0203 29.2858 66.9948 29.2884 66.9695 29.2867C66.8508 29.2867 66.7941 29.2321 66.7941 29.1248V29.1122C66.7661 29.1695 66.7176 29.2186 66.6549 29.2531C66.5829 29.2846 66.5018 29.2998 66.4202 29.2972C66.3667 29.2984 66.3134 29.2906 66.2638 29.2743C66.2141 29.258 66.169 29.2336 66.1314 29.2026Z" fill="black"/>
<path d="M67.419 29.0891V28.5003C67.4179 28.4667 67.4317 28.4339 67.4577 28.4078C67.4796 28.3837 67.5118 28.3672 67.5479 28.3615C67.5829 28.3563 67.6187 28.3563 67.6537 28.3615C67.689 28.3688 67.72 28.3859 67.7413 28.4099C67.7674 28.4352 67.7812 28.4673 67.78 28.5003V28.534C67.7903 28.5106 67.8032 28.4881 67.8187 28.4667C67.8368 28.4447 67.8566 28.4236 67.878 28.4036C67.9018 28.3822 67.9308 28.365 67.9631 28.3531C67.9953 28.3404 68.0306 28.334 68.0663 28.3342C68.0916 28.3333 68.1166 28.3384 68.1385 28.3489C68.159 28.3553 68.1762 28.3672 68.1875 28.3826C68.1981 28.3967 68.2052 28.4124 68.2081 28.4288C68.2146 28.4459 68.2146 28.4643 68.2081 28.4814C68.2035 28.4977 68.1957 28.5134 68.1849 28.5277C68.1742 28.5431 68.158 28.5556 68.1385 28.5634C68.1176 28.5718 68.0947 28.5761 68.0714 28.576C67.9984 28.5757 67.9272 28.5941 67.8677 28.6286C67.8403 28.6454 67.8182 28.6674 67.8034 28.6927C67.7886 28.7179 67.7815 28.7457 67.7826 28.7737V29.0933C67.7876 29.144 67.7732 29.1947 67.7413 29.2384C67.7246 29.2548 67.7031 29.2677 67.6788 29.2757C67.6545 29.2838 67.6282 29.2869 67.6021 29.2847C67.4809 29.2868 67.419 29.2216 67.419 29.0891Z" fill="black"/>
<path d="M68.682 29.2679C68.6134 29.2496 68.5495 29.2211 68.4937 29.1838C68.4353 29.1424 68.3894 29.0906 68.3596 29.0324C68.3261 28.9657 68.3094 28.8941 68.3106 28.8221C68.3089 28.7346 68.3356 28.6482 68.388 28.5718C68.4416 28.5004 68.5171 28.4417 68.6072 28.4015C68.7018 28.3611 68.8073 28.3409 68.9141 28.3426C68.9838 28.3425 69.0532 28.3503 69.1204 28.3658C69.1756 28.3785 69.2273 28.3999 69.2725 28.4288C69.2948 28.4443 69.311 28.4648 69.3189 28.4877C69.3265 28.5083 69.3265 28.5302 69.3189 28.5508C69.3123 28.5696 69.3019 28.5874 69.288 28.6034C69.2732 28.6183 69.252 28.6281 69.2287 28.6307C69.2011 28.6325 69.1735 28.6281 69.1487 28.6181C69.0861 28.5886 69.0147 28.5741 68.9424 28.576C68.8692 28.5763 68.799 28.5997 68.7464 28.6412C68.6943 28.6907 68.6683 28.7549 68.6742 28.82C68.6744 28.8608 68.6831 28.9014 68.7 28.9398C68.7205 28.9781 68.7545 29.0106 68.7977 29.033C68.8408 29.0555 68.8912 29.067 68.9424 29.066C69.0171 29.0656 69.0905 29.0505 69.1565 29.0218C69.1816 29.0151 69.2087 29.0151 69.2338 29.0218C69.2458 29.0228 69.2573 29.0259 69.2676 29.031C69.2779 29.0361 69.2866 29.043 69.2931 29.0513C69.3084 29.0684 69.3197 29.0876 69.3267 29.1081C69.3342 29.1293 69.3342 29.1519 69.3267 29.1732C69.3177 29.1963 69.3007 29.2168 69.2777 29.2321C69.2297 29.2603 69.1754 29.2803 69.1178 29.291C69.047 29.3055 68.9742 29.3126 68.9012 29.312C68.8254 29.3083 68.7511 29.2934 68.682 29.2679Z" fill="black"/>
<path d="M69.5369 29.0891V28.1407C69.5325 28.0887 69.5469 28.0368 69.5782 27.9914C69.5936 27.9747 69.614 27.9614 69.6375 27.9529C69.6609 27.9445 69.6867 27.9411 69.7123 27.9431C69.836 27.9431 69.8979 28.0083 69.8979 28.1407V28.494C69.9392 28.4377 69.9998 28.3926 70.0722 28.3642C70.1446 28.3357 70.2257 28.3253 70.3054 28.3342C70.3534 28.3368 70.4005 28.346 70.4446 28.3615C70.4887 28.3773 70.5288 28.3993 70.5633 28.4267C70.5992 28.4576 70.6272 28.4941 70.6458 28.534C70.6671 28.5818 70.6776 28.6324 70.6767 28.6833V29.0891C70.6816 29.1404 70.6672 29.1918 70.6355 29.2363C70.6194 29.2536 70.5982 29.2674 70.5738 29.2762C70.5495 29.285 70.5228 29.2887 70.4962 29.2868C70.3776 29.2868 70.3183 29.2216 70.3183 29.0891V28.7001C70.3211 28.6542 70.3027 28.6092 70.2667 28.5739C70.2496 28.5591 70.2287 28.5475 70.2056 28.5398C70.1824 28.5322 70.1575 28.5288 70.1326 28.5297C70.1019 28.5294 70.0715 28.5344 70.0434 28.5446C70.0154 28.5548 69.9904 28.5698 69.9701 28.5886C69.9469 28.6089 69.9287 28.6327 69.9168 28.6587C69.9048 28.6846 69.8993 28.7123 69.9005 28.74V29.0891C69.9053 29.1404 69.891 29.1918 69.8593 29.2363C69.8432 29.2536 69.822 29.2674 69.7976 29.2762C69.7733 29.285 69.7466 29.2887 69.72 29.2868C69.6014 29.2868 69.5369 29.2216 69.5369 29.0891Z" fill="black"/>
<path d="M70.9859 29.2216C70.9493 29.1934 70.9212 29.1587 70.9038 29.1203C70.8864 29.0818 70.8802 29.0405 70.8857 28.9997C70.8912 28.959 70.9083 28.9198 70.9355 28.8853C70.9627 28.8508 70.9994 28.822 71.0426 28.801C71.2229 28.7494 71.4141 28.7279 71.6048 28.7379V28.679C71.6048 28.5844 71.5429 28.536 71.4191 28.536C71.3065 28.5411 71.1961 28.5639 71.0942 28.6033C71.0762 28.61 71.0562 28.612 71.0368 28.609C71.0174 28.606 70.9996 28.5981 70.9859 28.5865C70.9708 28.5747 70.9592 28.5602 70.952 28.5442C70.9449 28.5281 70.9424 28.511 70.9446 28.494C70.9451 28.4771 70.9514 28.4606 70.9628 28.4465C70.9742 28.4324 70.9903 28.4212 71.0091 28.4141C71.0735 28.3908 71.141 28.3739 71.2102 28.3636C71.2864 28.3496 71.3643 28.3425 71.4423 28.3426C71.5092 28.3419 71.576 28.3482 71.6409 28.3615C71.6974 28.3754 71.75 28.3982 71.7956 28.4288C71.8433 28.4621 71.8797 28.5048 71.9013 28.5529C71.9257 28.6146 71.937 28.6793 71.9349 28.7442V29.1374C71.9364 29.1721 71.9257 29.2064 71.9039 29.2363C71.8859 29.2602 71.8573 29.2775 71.824 29.2846C71.7927 29.291 71.7599 29.291 71.7286 29.2846C71.7122 29.2808 71.697 29.2744 71.6837 29.2657C71.6704 29.257 71.6594 29.2463 71.6512 29.2342C71.6275 29.2049 71.6158 29.1703 71.6177 29.1353V29.1206C71.5912 29.1802 71.5403 29.2305 71.4736 29.2631C71.4069 29.2957 71.3284 29.3085 71.2515 29.2994C71.1541 29.3016 71.0592 29.2738 70.9859 29.2216ZM71.5145 29.0723C71.5442 29.0516 71.5677 29.0257 71.5834 28.9966C71.599 28.9675 71.6063 28.9358 71.6048 28.904V28.8662H71.4939H71.4011C71.3741 28.8678 71.3474 28.8713 71.3211 28.8767C71.3005 28.8801 71.2806 28.8857 71.2618 28.8935C71.2439 28.8984 71.2278 28.9071 71.2154 28.9187C71.2048 28.9304 71.1961 28.9431 71.1896 28.9566C71.1853 28.9732 71.1853 28.9904 71.1896 29.0071C71.1893 29.0225 71.1927 29.0379 71.1996 29.0523C71.2066 29.0667 71.2169 29.0798 71.2301 29.091C71.2432 29.1021 71.259 29.111 71.2764 29.1172C71.2938 29.1233 71.3125 29.1267 71.3314 29.1269C71.3989 29.1289 71.4646 29.1093 71.5145 29.0723Z" fill="black"/>
<path d="M72.2114 29.1858C72.1924 29.174 72.1781 29.1579 72.1701 29.1395C72.1624 29.1219 72.1624 29.1026 72.1701 29.0849C72.1772 29.0683 72.1886 29.0533 72.2036 29.0407C72.219 29.027 72.2402 29.0187 72.2629 29.0176C72.2896 29.0161 72.3164 29.0204 72.3403 29.0302L72.3816 29.0491L72.4434 29.0744C72.4667 29.0825 72.4909 29.0889 72.5157 29.0933C72.5478 29.0997 72.5806 29.1039 72.6136 29.1059H72.691L72.7658 29.0954C72.7883 29.091 72.8089 29.0815 72.8251 29.0681C72.833 29.0614 72.8392 29.0535 72.8432 29.0448C72.8472 29.0361 72.8489 29.0268 72.8483 29.0176C72.8476 29.0083 72.8442 28.9992 72.8384 28.9912C72.8326 28.9831 72.8245 28.9763 72.8148 28.9713C72.7848 28.9537 72.7505 28.9415 72.7142 28.9356L72.5569 28.9019L72.4151 28.8662C72.3787 28.855 72.3433 28.8417 72.3094 28.8262C72.2773 28.814 72.2484 28.7968 72.2243 28.7758C72.2045 28.7551 72.1896 28.7315 72.1804 28.7064C72.1674 28.6753 72.1613 28.6425 72.1624 28.6096C72.1602 28.5674 72.1722 28.5254 72.1972 28.4883C72.2222 28.4513 72.2592 28.4205 72.3042 28.3994C72.4198 28.3454 72.5536 28.3233 72.6859 28.3363C72.7302 28.3378 72.7742 28.3427 72.8174 28.351L72.9128 28.372L72.9953 28.4015C73.0199 28.4102 73.0406 28.4249 73.0546 28.4435C73.0686 28.4593 73.075 28.4788 73.0727 28.4982C73.0697 28.5159 73.0627 28.533 73.052 28.5487C73.0393 28.5638 73.0199 28.5743 72.9979 28.5781C72.9716 28.5832 72.9442 28.5832 72.9179 28.5781C72.8441 28.5551 72.767 28.5395 72.6884 28.5318H72.6008C72.572 28.5337 72.5439 28.5401 72.5182 28.5508C72.5071 28.5541 72.4975 28.5601 72.4906 28.568C72.4837 28.5759 72.4798 28.5852 72.4796 28.5949C72.4791 28.6051 72.4817 28.6151 72.4871 28.6243C72.4925 28.6334 72.5005 28.6414 72.5105 28.6475C72.5419 28.6616 72.5758 28.6716 72.6111 28.6769L72.7658 28.7085C72.8192 28.72 72.8717 28.734 72.9231 28.7505C72.9645 28.7638 73.0035 28.7814 73.0391 28.8031C73.0735 28.8239 73.101 28.8514 73.1191 28.883C73.1413 28.9293 73.1494 28.9794 73.1427 29.0288C73.136 29.0783 73.1146 29.1257 73.0804 29.1669C73.0354 29.2166 72.9722 29.2534 72.8999 29.272C72.8169 29.2947 72.7293 29.304 72.642 29.2994C72.488 29.2962 72.3384 29.2568 72.2114 29.1858Z" fill="black"/>
<path d="M73.5869 29.2448C73.496 29.2103 73.4204 29.1537 73.3703 29.0829C73.3143 29.0022 73.2867 28.9105 73.2904 28.8179C73.2882 28.7329 73.3131 28.6488 73.3626 28.574C73.4131 28.5022 73.4861 28.4427 73.574 28.4015C73.6697 28.3593 73.7773 28.3383 73.8861 28.3406C73.969 28.3385 74.0516 28.3506 74.1285 28.3763C74.1938 28.397 74.2515 28.4311 74.2961 28.4751C74.3367 28.5179 74.3673 28.5664 74.3863 28.6181C74.4076 28.6739 74.4181 28.7321 74.4173 28.7906C74.4173 28.841 74.3786 28.8663 74.3038 28.8663H73.6462C73.643 28.898 73.6487 28.9298 73.6628 28.9595C73.6769 28.9891 73.699 29.0158 73.7276 29.0374C73.7561 29.0591 73.7903 29.0752 73.8276 29.0845C73.8649 29.0938 73.9043 29.0961 73.9428 29.0913C73.9959 29.0914 74.0486 29.0829 74.0975 29.066C74.1447 29.0514 74.1884 29.03 74.2265 29.0029C74.241 28.9963 74.2575 28.9928 74.2742 28.9928C74.2909 28.9928 74.3073 28.9963 74.3219 29.0029C74.3386 29.0103 74.3533 29.0205 74.3648 29.0328C74.3764 29.0451 74.3846 29.0593 74.3889 29.0744C74.396 29.0887 74.3976 29.1044 74.3934 29.1195C74.3893 29.1345 74.3796 29.1481 74.3657 29.1586C74.3422 29.1761 74.3172 29.1922 74.2909 29.2069L74.1981 29.2511C74.1565 29.268 74.1123 29.28 74.0666 29.2868C74.0122 29.2955 73.9569 29.2997 73.9015 29.2994C73.7929 29.301 73.6853 29.2823 73.5869 29.2448ZM74.1156 28.7317C74.1157 28.6738 74.0961 28.617 74.0588 28.5677C74.0386 28.5472 74.0125 28.5311 73.9828 28.5208C73.9531 28.5106 73.9208 28.5064 73.8886 28.5088C73.8562 28.5076 73.8238 28.5127 73.7943 28.5237C73.7647 28.5347 73.7387 28.5512 73.7184 28.5719C73.6749 28.6177 73.6505 28.6737 73.6488 28.7317H74.1156Z" fill="black"/>
<path d="M63.496 31.0426C63.4274 31.0243 63.3636 30.9958 63.3078 30.9585C63.2493 30.9172 63.2034 30.8653 63.1737 30.8071C63.1392 30.7406 63.1217 30.669 63.1221 30.5968C63.121 30.5098 63.1486 30.4241 63.202 30.3487C63.2546 30.2768 63.3292 30.2173 63.4187 30.1763C63.5143 30.1361 63.6206 30.1159 63.7281 30.1174C63.7978 30.1175 63.8672 30.1253 63.9344 30.1405C63.9894 30.1537 64.041 30.1751 64.0866 30.2036C64.1089 30.219 64.125 30.2395 64.133 30.2625C64.1406 30.283 64.1406 30.305 64.133 30.3256C64.1253 30.344 64.1149 30.3617 64.102 30.3781C64.0866 30.3935 64.0644 30.4033 64.0401 30.4055C64.0134 30.407 63.9867 30.4026 63.9628 30.3929C63.8994 30.3631 63.827 30.3485 63.7539 30.3508C63.6816 30.3516 63.6124 30.3749 63.5605 30.416C63.5342 30.4402 63.5142 30.4685 63.5018 30.4993C63.4893 30.53 63.4848 30.5625 63.4883 30.5947C63.4884 30.6356 63.4971 30.6761 63.5141 30.7146C63.5331 30.7511 63.5644 30.7824 63.6043 30.805C63.6492 30.8296 63.7024 30.8421 63.7565 30.8407C63.8311 30.8401 63.9045 30.825 63.9705 30.7966C63.9942 30.7862 64.0214 30.7825 64.0479 30.7861C64.0598 30.787 64.0714 30.7902 64.0817 30.7953C64.0919 30.8004 64.1007 30.8073 64.1072 30.8155C64.1224 30.8326 64.1338 30.8519 64.1407 30.8723C64.1482 30.8936 64.1482 30.9162 64.1407 30.9375C64.1318 30.9606 64.1147 30.9811 64.0917 30.9964C64.0438 31.0245 63.9894 31.0445 63.9318 31.0552C63.861 31.0697 63.7882 31.0768 63.7152 31.0763C63.6403 31.0759 63.566 31.0645 63.496 31.0426Z" fill="black"/>
<path d="M64.4668 30.9416C64.4118 30.8961 64.369 30.8418 64.341 30.782C64.3131 30.7223 64.3006 30.6585 64.3044 30.5947C64.3036 30.5309 64.3167 30.4676 64.3431 30.4075C64.3686 30.351 64.4071 30.2989 64.4565 30.254C64.5113 30.2079 64.5784 30.1727 64.6525 30.151C64.7409 30.1248 64.8344 30.112 64.9284 30.1131C65.0122 30.1084 65.0962 30.1176 65.1755 30.14C65.2548 30.1624 65.3278 30.1976 65.39 30.2435C65.4453 30.2899 65.4884 30.3449 65.5168 30.4053C65.5451 30.4656 65.5582 30.5301 65.5551 30.5947C65.5557 30.6584 65.5426 30.7218 65.5164 30.7818C65.4904 30.8375 65.451 30.8882 65.4003 30.9311C65.346 30.9777 65.2788 31.013 65.2044 31.0342C65.116 31.0604 65.0225 31.0732 64.9284 31.072C64.8447 31.0771 64.7605 31.0681 64.6811 31.0457C64.6017 31.0233 64.5288 30.9879 64.4668 30.9416ZM65.1167 30.805C65.1652 30.7422 65.1887 30.6687 65.1837 30.5947C65.1878 30.5207 65.1645 30.4474 65.1167 30.3844C65.0945 30.3608 65.066 30.3418 65.0334 30.3286C65.0007 30.3155 64.9648 30.3087 64.9284 30.3087C64.892 30.3087 64.8561 30.3155 64.8235 30.3286C64.7908 30.3418 64.7623 30.3608 64.7402 30.3844C64.6933 30.4476 64.6708 30.5209 64.6757 30.5947C64.6698 30.6685 64.6924 30.742 64.7402 30.805C64.762 30.8289 64.7904 30.8483 64.8231 30.8617C64.8558 30.8751 64.8919 30.8821 64.9284 30.8821C64.965 30.8821 65.0011 30.8751 65.0338 30.8617C65.0664 30.8483 65.0948 30.8289 65.1167 30.805Z" fill="black"/>
<path d="M65.8243 31.0111C65.7929 30.9665 65.7785 30.9152 65.783 30.8639V30.3214C65.7793 30.2708 65.7937 30.2204 65.8243 30.1763C65.8411 30.1605 65.8622 30.148 65.8859 30.14C65.9096 30.132 65.9353 30.1286 65.961 30.1301C65.9861 30.128 66.0115 30.1306 66.0352 30.1376C66.0589 30.1447 66.0804 30.156 66.098 30.1707C66.1156 30.1855 66.1289 30.2033 66.1369 30.2229C66.1448 30.2424 66.1473 30.2631 66.1441 30.2836V30.2962C66.1679 30.2363 66.2186 30.186 66.2859 30.1553C66.3594 30.1228 66.4422 30.1069 66.5257 30.109C66.5635 30.1066 66.6014 30.1066 66.6392 30.109C66.6738 30.1153 66.7075 30.1245 66.7398 30.1364C66.7728 30.1519 66.8018 30.1726 66.8249 30.1973C66.8494 30.2295 66.8684 30.2641 66.8816 30.3004C66.9033 30.2632 66.931 30.2285 66.9641 30.1973C66.9945 30.172 67.0304 30.1513 67.0698 30.1364C67.1062 30.1237 67.1443 30.1146 67.1833 30.109C67.2236 30.1067 67.2641 30.1067 67.3045 30.109C67.3551 30.1073 67.4056 30.1142 67.4527 30.1295C67.4998 30.1447 67.5424 30.1678 67.5778 30.1973C67.6531 30.2674 67.6911 30.3589 67.6836 30.4518V30.8576C67.6872 30.9089 67.6729 30.9599 67.6423 31.0048C67.6262 31.0222 67.605 31.0359 67.5807 31.0447C67.5563 31.0535 67.5296 31.0572 67.5031 31.0553C67.3819 31.0553 67.3226 30.9901 67.3226 30.8576V30.4686C67.326 30.4237 67.3085 30.3794 67.2736 30.3445C67.2577 30.3294 67.2379 30.3174 67.2156 30.3094C67.1932 30.3014 67.169 30.2976 67.1446 30.2983C67.114 30.2977 67.0835 30.3023 67.0552 30.3117C67.0268 30.3211 67.001 30.3351 66.9796 30.3529C66.9341 30.3936 66.9101 30.4472 66.9125 30.5022V30.8576C66.918 30.9093 66.9026 30.961 66.8687 31.0048C66.8526 31.0222 66.8314 31.0359 66.8071 31.0447C66.7827 31.0535 66.756 31.0572 66.7294 31.0553C66.6108 31.0553 66.5515 30.9901 66.5515 30.8576V30.5065C66.5557 30.4566 66.5393 30.407 66.5051 30.3656C66.4899 30.349 66.47 30.3358 66.447 30.327C66.4241 30.3182 66.3989 30.3141 66.3736 30.3151C66.313 30.3132 66.2538 30.3306 66.2085 30.3635C66.1862 30.3806 66.1688 30.4015 66.1577 30.4248C66.1465 30.4481 66.1419 30.4731 66.1441 30.498V30.8744C66.1441 31.0069 66.0822 31.0721 65.9558 31.0721C65.9291 31.0729 65.9027 31.0675 65.8795 31.0568C65.8563 31.046 65.8372 31.0302 65.8243 31.0111Z" fill="black"/>
<path d="M67.9896 31.3476C67.9601 31.3024 67.9467 31.2514 67.951 31.2004V30.3361C67.9477 30.2826 67.9628 30.2294 67.9948 30.1826C68.01 30.1641 68.0308 30.1491 68.0552 30.1392C68.0796 30.1292 68.1068 30.1246 68.1341 30.1258C68.158 30.1248 68.1819 30.128 68.2042 30.1353C68.2265 30.1425 68.2465 30.1537 68.263 30.1679C68.2944 30.1959 68.3111 30.2329 68.3094 30.2709V30.2962C68.3398 30.2397 68.3925 30.1931 68.459 30.1637C68.5539 30.1256 68.6612 30.113 68.7655 30.1277C68.8697 30.1424 68.9656 30.1837 69.0392 30.2457C69.1396 30.3477 69.1893 30.4768 69.1784 30.6074C69.1794 30.6789 69.1655 30.75 69.1372 30.8177C69.1152 30.8738 69.0772 30.925 69.0263 30.967C68.9809 31.0044 68.9265 31.0338 68.8664 31.0532C68.8042 31.0736 68.7375 31.0836 68.6704 31.0826C68.5933 31.0847 68.5168 31.0702 68.4487 31.0405C68.3879 31.0155 68.339 30.9749 68.3094 30.9249V31.2151C68.3094 31.3476 68.2475 31.4127 68.1237 31.4127C68.0962 31.413 68.0691 31.407 68.0454 31.3955C68.0218 31.384 68.0025 31.3674 67.9896 31.3476ZM68.7633 30.7966C68.8114 30.7337 68.8348 30.6604 68.8303 30.5863C68.8344 30.5528 68.8344 30.519 68.8303 30.4854C68.8213 30.454 68.8074 30.4236 68.7891 30.395C68.7708 30.3668 68.743 30.3435 68.7091 30.3277C68.6682 30.3051 68.6193 30.294 68.5699 30.2962C68.3894 30.2962 68.312 30.3929 68.312 30.5842C68.3077 30.6583 68.3311 30.7316 68.379 30.7945C68.4023 30.8179 68.4318 30.8365 68.4654 30.8489C68.499 30.8613 68.5356 30.8672 68.5724 30.866C68.6088 30.8692 68.6455 30.8648 68.6793 30.8535C68.7131 30.8421 68.7428 30.824 68.7659 30.8008L68.7633 30.7966Z" fill="black"/>
<path d="M69.4649 31.011C69.4342 30.9661 69.4198 30.915 69.4234 30.8638V29.9154C69.4198 29.8642 69.4342 29.8131 69.4649 29.7682C69.4794 29.7511 69.4993 29.7374 69.5225 29.7285C69.5457 29.7197 69.5714 29.7159 69.597 29.7178C69.624 29.7159 69.6512 29.7195 69.6761 29.7283C69.701 29.7372 69.7228 29.7509 69.7395 29.7682C69.7745 29.8118 69.7909 29.8635 69.7861 29.9154V30.8638C69.7909 30.9157 69.7745 30.9674 69.7395 31.011C69.7228 31.0283 69.701 31.0421 69.6761 31.0509C69.6512 31.0597 69.624 31.0633 69.597 31.0615C69.5714 31.0633 69.5457 31.0596 69.5225 31.0507C69.4993 31.0418 69.4794 31.0281 69.4649 31.011Z" fill="black"/>
<path d="M70.3071 31.0194C70.2157 30.9855 70.1399 30.9288 70.0905 30.8575C70.0338 30.777 70.0052 30.6854 70.008 30.5926C70.0067 30.5074 70.0325 30.4233 70.0828 30.3486C70.1319 30.276 70.2052 30.2163 70.2942 30.1762C70.389 30.1339 70.4958 30.1129 70.6037 30.1152C70.6875 30.1131 70.7709 30.1253 70.8487 30.151C70.9136 30.1711 70.9707 30.2053 71.0137 30.2498C71.0557 30.2921 71.0872 30.3407 71.1065 30.3928C71.1278 30.4486 71.1383 30.5068 71.1375 30.5652C71.1375 30.6157 71.0988 30.6409 71.0215 30.6409H70.3742C70.371 30.6726 70.3767 30.7045 70.3907 30.7341C70.4048 30.7638 70.427 30.7904 70.4555 30.8121C70.4841 30.8337 70.5183 30.8498 70.5555 30.8592C70.5928 30.8685 70.6322 30.8708 70.6707 30.8659C70.723 30.8659 70.7747 30.8573 70.8229 30.8407C70.8707 30.8257 70.9151 30.8044 70.9544 30.7776C70.9685 30.771 70.9845 30.7675 71.0008 30.7675C71.0171 30.7675 71.0331 30.771 71.0472 30.7776C71.0647 30.7845 71.08 30.7945 71.0921 30.8069C71.1041 30.8192 71.1126 30.8337 71.1169 30.8491C71.1229 30.8637 71.1238 30.8793 71.1192 30.8943C71.1146 30.9092 71.1048 30.9227 71.0911 30.9332C71.0684 30.9507 71.0443 30.9668 71.0189 30.9816L70.926 31.0257C70.8837 31.0429 70.8385 31.055 70.7919 31.0615C70.7376 31.0703 70.6823 31.0746 70.6269 31.0741C70.5165 31.0766 70.407 31.0578 70.3071 31.0194ZM70.8358 30.5063C70.8353 30.4482 70.8148 30.3914 70.7765 30.3423C70.7565 30.3222 70.7308 30.3063 70.7016 30.296C70.6724 30.2857 70.6406 30.2814 70.6089 30.2834C70.576 30.2823 70.5433 30.2874 70.5133 30.2983C70.4833 30.3093 70.4569 30.3258 70.4361 30.3465C70.3925 30.3924 70.3681 30.4484 70.3664 30.5063H70.8358Z" fill="black"/>
<path d="M71.5333 30.9901C71.4627 30.9128 71.4297 30.8169 71.4405 30.7209V30.3277H71.3708C71.3541 30.3288 71.3372 30.3271 71.3213 30.3227C71.3054 30.3184 71.2906 30.3115 71.278 30.3025C71.2549 30.2795 71.2438 30.2501 71.247 30.2205C71.2448 30.2072 71.2465 30.1936 71.2518 30.1809C71.2572 30.1682 71.2661 30.1567 71.2779 30.1473C71.2896 30.1379 71.3039 30.1309 71.3196 30.1268C71.3353 30.1227 71.352 30.1217 71.3683 30.1237H71.4637L71.4895 29.945C71.5023 29.8294 71.5617 29.7726 71.6622 29.7726C71.7628 29.7726 71.8015 29.8357 71.8015 29.9597V30.1237H71.9407C72.0207 30.1237 72.0594 30.1595 72.0594 30.2289C72.0609 30.2422 72.0589 30.2557 72.0536 30.2684C72.0483 30.2811 72.0397 30.2927 72.0284 30.3025C72.0154 30.3117 72.0002 30.3186 71.9838 30.323C71.9674 30.3273 71.9502 30.3289 71.933 30.3277H71.8015V30.6558C71.796 30.7121 71.8084 30.7686 71.8376 30.8198C71.8582 30.8513 71.8995 30.8639 71.9614 30.8618H72.0258C72.036 30.8609 72.0464 30.8617 72.0561 30.8642C72.0659 30.8667 72.0749 30.871 72.0826 30.8766C72.0988 30.8874 72.1106 30.9021 72.1161 30.9186C72.1188 30.9354 72.1188 30.9523 72.1161 30.9691C72.1143 30.987 72.1072 31.0043 72.0955 31.0195C72.0851 31.0342 72.0686 31.0454 72.049 31.0511C71.9654 31.0713 71.8783 31.0798 71.7912 31.0763C71.7433 31.0766 71.6959 31.0691 71.6516 31.0543C71.6073 31.0395 71.5671 31.0177 71.5333 30.9901Z" fill="black"/>
<path d="M72.5547 31.0194C72.4638 30.9849 72.3881 30.9284 72.3381 30.8575C72.2821 30.7769 72.2544 30.6852 72.2581 30.5926C72.256 30.5075 72.2808 30.4235 72.3303 30.3486C72.3809 30.2769 72.4538 30.2174 72.5418 30.1762C72.6375 30.134 72.7451 30.1129 72.8538 30.1152C72.9368 30.1131 73.0194 30.1253 73.0962 30.151C73.162 30.1711 73.2198 30.2052 73.2639 30.2498C73.3049 30.2923 73.3356 30.3408 73.3541 30.3928C73.3754 30.4486 73.3859 30.5068 73.3851 30.5652C73.3851 30.6157 73.3464 30.6409 73.2716 30.6409H72.614C72.6108 30.6726 72.6165 30.7045 72.6306 30.7341C72.6447 30.7638 72.6668 30.7904 72.6954 30.8121C72.7239 30.8337 72.7581 30.8498 72.7954 30.8592C72.8327 30.8685 72.872 30.8708 72.9106 30.8659C72.9637 30.8661 73.0163 30.8575 73.0653 30.8407C73.112 30.8252 73.1555 30.8039 73.1942 30.7776C73.2088 30.771 73.2252 30.7675 73.2419 30.7675C73.2586 30.7675 73.2751 30.771 73.2896 30.7776C73.3064 30.785 73.321 30.7951 73.3326 30.8075C73.3442 30.8198 73.3524 30.834 73.3567 30.8491C73.3638 30.8634 73.3654 30.8791 73.3612 30.8941C73.3571 30.9091 73.3474 30.9228 73.3335 30.9332C73.31 30.9507 73.285 30.9669 73.2587 30.9816L73.1659 31.0257C73.1243 31.0426 73.08 31.0547 73.0343 31.0615C72.98 31.0701 72.9247 31.0744 72.8693 31.0741C72.7607 31.0756 72.6531 31.0569 72.5547 31.0194ZM73.0833 30.5063C73.0835 30.4484 73.0639 30.3916 73.0266 30.3423C73.0066 30.3222 72.9809 30.3063 72.9517 30.296C72.9225 30.2857 72.8907 30.2814 72.859 30.2834C72.8261 30.2821 72.7934 30.2872 72.7633 30.2981C72.7333 30.3091 72.7069 30.3257 72.6862 30.3465C72.6427 30.3924 72.6183 30.4484 72.6166 30.5063H73.0833Z" fill="black"/>
<path d="M73.6975 30.9543C73.5995 30.8521 73.5509 30.7242 73.5608 30.5947C73.5597 30.5234 73.5727 30.4524 73.5995 30.3845C73.6232 30.3295 73.661 30.2793 73.7104 30.2373C73.7557 30.1992 73.8101 30.1691 73.8703 30.1489C73.933 30.1302 73.9995 30.1209 74.0663 30.1216C74.1435 30.1193 74.2201 30.1338 74.2881 30.1637C74.3494 30.188 74.3986 30.2289 74.4273 30.2793V29.9134C74.4235 29.8612 74.4388 29.8093 74.4712 29.7641C74.4889 29.7474 74.5112 29.7343 74.5363 29.7259C74.5614 29.7175 74.5885 29.714 74.6156 29.7158C74.6407 29.7143 74.6658 29.718 74.6888 29.7264C74.7117 29.7349 74.7318 29.7478 74.7471 29.7641C74.7766 29.8101 74.7899 29.8617 74.7858 29.9134V30.8534C74.7888 30.9069 74.7736 30.96 74.7419 31.0069C74.727 31.025 74.7066 31.0396 74.6826 31.0492C74.6586 31.0588 74.6319 31.063 74.6052 31.0616C74.5811 31.0629 74.5569 31.06 74.5342 31.0532C74.5115 31.0463 74.4909 31.0355 74.4737 31.0216C74.4419 30.9929 74.4252 30.9551 74.4273 30.9165C74.3946 30.9733 74.341 31.0204 74.274 31.0512C74.207 31.0821 74.1299 31.0953 74.0534 31.0889C73.9854 31.0899 73.9181 31.0783 73.8565 31.055C73.7948 31.0317 73.7405 30.9973 73.6975 30.9543ZM74.4273 30.601C74.4324 30.5267 74.408 30.453 74.3577 30.3908C74.335 30.3668 74.3056 30.3476 74.272 30.3348C74.2383 30.322 74.2014 30.3159 74.1643 30.3172C74.1263 30.3157 74.0885 30.3223 74.0546 30.3363C74.0207 30.3503 73.9918 30.3712 73.9709 30.3971C73.9237 30.4603 73.9003 30.5334 73.9038 30.6074C73.9037 30.6421 73.9089 30.6767 73.9193 30.7104C73.9276 30.7427 73.9415 30.7738 73.9606 30.8029C73.9783 30.8318 74.005 30.8564 74.0379 30.8744C74.0739 30.8915 74.1149 30.9003 74.1565 30.8996C74.3371 30.8982 74.4273 30.7987 74.4273 30.601Z" fill="black"/>
<path d="M75.1576 29.8293C75.1487 29.7987 75.1538 29.7665 75.1718 29.7386C75.1898 29.7108 75.2196 29.6892 75.2555 29.6779C75.2915 29.6631 75.3313 29.6554 75.3716 29.6554C75.4119 29.6554 75.4516 29.6631 75.4876 29.6779C75.5235 29.6896 75.5531 29.7111 75.5715 29.7388C75.5899 29.7664 75.5958 29.7984 75.5882 29.8293L75.4825 30.5127C75.4794 30.5381 75.4658 30.5618 75.4438 30.58C75.4243 30.5951 75.3984 30.6034 75.3716 30.6031C75.3587 30.6032 75.3459 30.6012 75.334 30.5972C75.322 30.5932 75.3111 30.5874 75.302 30.58C75.291 30.5701 75.2828 30.5584 75.2779 30.5457C75.273 30.533 75.2716 30.5196 75.2736 30.5064L75.1576 29.8293ZM75.2401 31.0216C75.2214 31.0074 75.2066 30.9901 75.1968 30.9709C75.187 30.9517 75.1824 30.9309 75.1833 30.9101C75.1829 30.8896 75.1874 30.8691 75.1967 30.85C75.206 30.8309 75.2199 30.8134 75.2375 30.7987C75.2549 30.7834 75.2761 30.7714 75.2997 30.7634C75.3232 30.7554 75.3487 30.7517 75.3742 30.7524C75.399 30.7521 75.4237 30.7558 75.4467 30.7634C75.4697 30.771 75.4907 30.7823 75.5083 30.7966C75.5272 30.8111 75.542 30.8287 75.5518 30.8483C75.5616 30.8679 75.5661 30.889 75.565 30.9101C75.5654 30.9516 75.546 30.9916 75.5108 31.0216C75.4931 31.0361 75.472 31.0477 75.4488 31.0556C75.4255 31.0635 75.4006 31.0675 75.3755 31.0675C75.3503 31.0675 75.3254 31.0635 75.3021 31.0556C75.2789 31.0477 75.2578 31.0361 75.2401 31.0216Z" fill="black"/>
<path d="M55.4609 38.9407H83.4069" stroke="#263238" stroke-linecap="round" stroke-linejoin="round"/>
<path d="M55.4609 41.6617H83.4069" stroke="#263238" stroke-linecap="round" stroke-linejoin="round"/>
<path d="M55.4609 44.3828H83.4069" stroke="#263238" stroke-linecap="round" stroke-linejoin="round"/>
<path d="M55.4609 47.1038H83.4069" stroke="#263238" stroke-linecap="round" stroke-linejoin="round"/>
<path d="M85.9527 2.82935H53.267C52.7616 2.82935 52.2769 2.99307 51.9195 3.28449C51.5621 3.57592 51.3613 3.97118 51.3613 4.38331V5.49359H72.4375L73.5489 4.47373H87.8584V4.38331C87.8584 3.97118 87.6577 3.57592 87.3003 3.28449C86.9429 2.99307 86.4582 2.82935 85.9527 2.82935Z" fill="#92E3A9"/>
</g>
<path d="M85.9518 2.82947H53.2661C52.2136 2.82947 51.3604 3.5252 51.3604 4.38344V51.238C51.3604 52.0962 52.2136 52.792 53.2661 52.792H85.9518C87.0042 52.792 87.8574 52.0962 87.8574 51.238V4.38344C87.8574 3.5252 87.0042 2.82947 85.9518 2.82947Z" stroke="#263238" stroke-linecap="round" stroke-linejoin="round"/>
<path d="M89.6445 46.1723V47.7662C89.6445 47.7864 89.6494 47.8063 89.6589 47.825C89.6683 47.8436 89.6822 47.8605 89.6997 47.8748C89.7171 47.889 89.7379 47.9003 89.7607 47.908C89.7836 47.9158 89.8081 47.9197 89.8328 47.9197C89.8576 47.92 89.8822 47.9162 89.9052 47.9086C89.9282 47.901 89.9491 47.8897 89.9667 47.8754C89.9842 47.8611 89.9981 47.8441 90.0074 47.8253C90.0167 47.8065 90.0214 47.7865 90.021 47.7662V46.1723C90.021 46.1316 90.0012 46.0926 89.9659 46.0638C89.9306 46.035 89.8827 46.0188 89.8328 46.0188C89.7828 46.0188 89.735 46.035 89.6997 46.0638C89.6644 46.0926 89.6445 46.1316 89.6445 46.1723Z" fill="white"/>
<path d="M89.6445 40.0615V43.3439C89.6491 43.3813 89.6713 43.4158 89.7064 43.4401C89.7415 43.4644 89.7868 43.4767 89.8328 43.4743C89.8789 43.4772 89.9246 43.4651 89.9598 43.4407C89.9951 43.4163 90.0171 43.3815 90.021 43.3439V40.0615C90.0171 40.0239 89.9951 39.9891 89.9598 39.9647C89.9246 39.9402 89.8789 39.9282 89.8328 39.9311C89.7868 39.9287 89.7415 39.941 89.7064 39.9653C89.6713 39.9896 89.6491 40.0241 89.6445 40.0615Z" fill="white"/>
<path d="M11.6205 49.8081C11.6205 49.8081 12.652 47.7053 9.21451 42.238C5.77703 36.7707 9.04173 27.939 9.04173 27.939" stroke="#92E3A9" stroke-miterlimit="10"/>
<path d="M13.6829 50.3695C13.6829 50.3695 14.8871 48.2667 13.5101 45.1819C12.133 42.0971 12.4992 40.3455 12.4992 40.3455" stroke="#92E3A9" stroke-miterlimit="10"/>
<path d="M8.45326 40.8395C8.45326 40.8395 5.77394 38.1732 4.74244 34.9517C3.71094 31.7302 3.71094 30.1868 3.71094 30.1868" stroke="#92E3A9" stroke-miterlimit="10"/>
<path d="M10.0738 49.2466C10.0738 49.2466 8.86956 47.9849 8.52658 44.1999C8.32763 41.8874 8.61811 39.5643 9.38531 37.3322" stroke="#92E3A9" stroke-miterlimit="10"/>
<path d="M8.75027 61.1337H14.8696L15.633 48.8575H7.98438L8.75027 61.1337Z" fill="white"/>
<path opacity="0.17" d="M8.75027 61.1337H14.8696L15.633 48.8575H7.98438L8.75027 61.1337Z" fill="black"/>
<path d="M10.2717 42.2254C10.2717 42.3095 10.4264 42.3725 10.4522 42.4525C10.478 42.5324 10.3955 42.6438 10.4341 42.7195C10.4728 42.7952 10.6275 42.8267 10.692 42.8982C10.7565 42.9697 10.692 43.0959 10.7591 43.1611C10.8261 43.2263 10.9808 43.2242 11.053 43.2831C11.1252 43.3419 11.1227 43.4723 11.2026 43.5228C11.2825 43.5732 11.4373 43.5375 11.5249 43.5796C11.6126 43.6216 11.6513 43.7478 11.7441 43.7793C11.837 43.8109 11.9762 43.7436 12.0742 43.7646C12.1722 43.7856 12.2496 43.8992 12.3501 43.9118C12.4507 43.9244 12.5616 43.8277 12.6648 43.8277C12.7679 43.8277 12.8762 43.9223 12.9768 43.9118C13.0774 43.9013 13.1547 43.7856 13.2527 43.7646C13.3507 43.7436 13.49 43.8109 13.5828 43.7793C13.6756 43.7478 13.7143 43.6195 13.802 43.5796C13.8897 43.5396 14.0444 43.5796 14.1243 43.5228C14.2043 43.466 14.2017 43.3419 14.2739 43.2831C14.3461 43.2242 14.506 43.2284 14.5679 43.1611C14.6298 43.0938 14.5833 42.9718 14.6349 42.8982C14.6865 42.8246 14.8412 42.7973 14.8928 42.7195C14.9444 42.6417 14.849 42.5324 14.8773 42.4525C14.9057 42.3725 15.0424 42.3095 15.0553 42.2254C15.0682 42.1412 14.9547 42.055 14.9547 41.9709C14.9547 41.8868 15.0682 41.7964 15.0553 41.7165C15.0424 41.6366 14.9031 41.5693 14.8773 41.4894C14.8515 41.4095 14.9341 41.298 14.8954 41.2223C14.8567 41.1466 14.6994 41.1151 14.6375 41.0436C14.5756 40.9721 14.6375 40.8459 14.5705 40.7807C14.5034 40.7155 14.3487 40.7176 14.2765 40.6588C14.2043 40.5999 14.2094 40.4695 14.1269 40.419C14.0444 40.3686 13.8948 40.4043 13.8046 40.3623C13.7143 40.3202 13.6808 40.194 13.5854 40.1625C13.49 40.131 13.3559 40.1982 13.2553 40.1772C13.1547 40.1562 13.0825 40.0426 12.9794 40.03C12.8762 40.0174 12.7705 40.1141 12.6673 40.1141C12.5642 40.1141 12.4533 40.0195 12.3527 40.03C12.2522 40.0405 12.1748 40.1562 12.0768 40.1772C11.9788 40.1982 11.8421 40.131 11.7493 40.1625C11.6565 40.194 11.6152 40.3202 11.5275 40.3623C11.4398 40.4043 11.2877 40.3623 11.2052 40.419C11.1227 40.4758 11.1278 40.5999 11.0556 40.6588C10.9834 40.7176 10.8261 40.7134 10.7642 40.7786C10.7023 40.8438 10.7462 40.97 10.6946 41.0415C10.643 41.113 10.4883 41.1445 10.4367 41.2223C10.3851 41.3001 10.4806 41.4095 10.4548 41.4894C10.429 41.5693 10.2871 41.6324 10.2743 41.7144C10.2614 41.7964 10.3774 41.8868 10.3774 41.9709C10.3774 42.055 10.2588 42.1454 10.2717 42.2254ZM7.0276 36.6992C7.0276 36.592 6.88061 36.4889 6.89866 36.3775C6.91671 36.266 7.09207 36.1924 7.12559 36.0915C7.15912 35.9906 7.05339 35.8497 7.10239 35.755C7.15138 35.6604 7.34737 35.6184 7.41183 35.5279C7.4763 35.4375 7.41184 35.2798 7.49693 35.1978C7.58203 35.1158 7.77802 35.1179 7.86828 35.0443C7.95853 34.9707 7.95337 34.8067 8.05652 34.7415C8.15967 34.6763 8.3505 34.7247 8.46139 34.6721C8.57227 34.6195 8.61869 34.4618 8.73989 34.4198C8.86109 34.3777 9.02871 34.466 9.15507 34.4387C9.28143 34.4113 9.37427 34.2663 9.5032 34.2536C9.63214 34.241 9.76108 34.3588 9.89775 34.3588C10.0344 34.3588 10.1556 34.2389 10.2923 34.2536C10.429 34.2684 10.5167 34.4113 10.6404 34.4387C10.7642 34.466 10.937 34.3798 11.0556 34.4198C11.1742 34.4597 11.2207 34.6195 11.3315 34.6721C11.4424 34.7247 11.6358 34.6721 11.739 34.7415C11.8421 34.8109 11.8344 34.9707 11.9272 35.0443C12.0201 35.1179 12.2186 35.1137 12.296 35.1978C12.3734 35.2819 12.3192 35.4375 12.3837 35.5279C12.4481 35.6184 12.6415 35.6562 12.6905 35.755C12.7395 35.8539 12.6364 35.9906 12.6699 36.0936C12.7034 36.1966 12.8788 36.2723 12.8968 36.3775C12.9149 36.4826 12.7653 36.5877 12.7653 36.6992C12.7653 36.8106 12.9123 36.9095 12.8968 37.0209C12.8814 37.1324 12.7034 37.2039 12.6699 37.3048C12.6364 37.4057 12.7395 37.5466 12.6905 37.6434C12.6415 37.7401 12.4456 37.7779 12.3837 37.8684C12.3218 37.9588 12.3837 38.1165 12.296 38.2006C12.2083 38.2847 12.0175 38.2784 11.9247 38.3541C11.8318 38.4298 11.8396 38.5917 11.739 38.6548C11.6384 38.7179 11.4424 38.6737 11.3315 38.7263C11.2207 38.7789 11.1742 38.9366 11.0556 38.9765C10.937 39.0165 10.7642 38.9324 10.6404 38.9597C10.5167 38.987 10.4212 39.13 10.2923 39.1447C10.1634 39.1595 10.0344 39.0375 9.89775 39.0375C9.76108 39.0375 9.63988 39.1574 9.5032 39.1447C9.36653 39.1321 9.27627 38.987 9.15249 38.9597C9.02871 38.9324 8.85594 39.0165 8.73989 38.9765C8.62385 38.9366 8.57227 38.7768 8.46139 38.7263C8.3505 38.6758 8.15709 38.7263 8.05652 38.6548C7.95595 38.5833 7.95853 38.4277 7.86828 38.352C7.77802 38.2763 7.57688 38.2826 7.49693 38.2006C7.41699 38.1186 7.4763 37.9588 7.41183 37.8684C7.34737 37.7779 7.15396 37.7401 7.10239 37.6434C7.05081 37.5466 7.15654 37.4057 7.12559 37.3048C7.09465 37.2039 6.91414 37.1261 6.89866 37.0209C6.88319 36.9158 7.0276 36.8148 7.0276 36.6992ZM6.67689 46.1029C6.67689 45.9957 6.53248 45.8926 6.54795 45.7812C6.56343 45.6697 6.74136 45.5982 6.77488 45.4973C6.80841 45.3964 6.70268 45.2555 6.75167 45.1588C6.80067 45.062 7.00955 45.0221 7.06112 44.9317C7.1127 44.8412 7.06112 44.6835 7.14622 44.6015C7.23132 44.5195 7.42731 44.5216 7.51756 44.448C7.60782 44.3744 7.60266 44.2104 7.70581 44.1452C7.80896 44.08 7.99979 44.1284 8.11068 44.0758C8.22156 44.0232 8.27056 43.8655 8.38918 43.8235C8.50781 43.7814 8.678 43.8697 8.80436 43.8424C8.93072 43.8151 9.02356 43.6721 9.15249 43.6574C9.28143 43.6426 9.41037 43.7625 9.54704 43.7625C9.68372 43.7625 9.80492 43.6447 9.94159 43.6574C10.0783 43.67 10.1659 43.8151 10.2897 43.8424C10.4135 43.8697 10.5863 43.7835 10.7049 43.8235C10.8235 43.8634 10.8699 44.0232 10.9808 44.0758C11.0917 44.1284 11.2851 44.0758 11.3883 44.1473C11.4914 44.2188 11.4837 44.3744 11.5765 44.448C11.6694 44.5216 11.8679 44.5195 11.9453 44.6015C12.0226 44.6835 11.9685 44.8412 12.033 44.9338C12.0974 45.0263 12.2908 45.062 12.3424 45.1588C12.394 45.2555 12.2857 45.3943 12.3192 45.4973C12.3527 45.6003 12.5281 45.676 12.5461 45.7812C12.5642 45.8863 12.4172 45.9915 12.4172 46.1029C12.4172 46.2144 12.5616 46.3132 12.5461 46.4246C12.5307 46.5361 12.3527 46.6076 12.3192 46.7085C12.2857 46.8094 12.3914 46.9503 12.3424 47.0471C12.2934 47.1438 12.0845 47.1837 12.033 47.2742C11.9814 47.3646 12.033 47.5223 11.9453 47.6043C11.8576 47.6863 11.6668 47.6842 11.5765 47.7578C11.4863 47.8314 11.4888 47.9954 11.3883 48.0606C11.2877 48.1258 11.0917 48.0774 10.9808 48.13C10.8699 48.1826 10.8235 48.3403 10.7049 48.3823C10.5863 48.4244 10.4135 48.3361 10.2897 48.3634C10.1659 48.3908 10.0705 48.5337 9.94159 48.5485C9.81266 48.5632 9.68372 48.4433 9.54704 48.4433C9.41037 48.4433 9.28917 48.5611 9.15249 48.5485C9.01582 48.5358 8.92556 48.3908 8.80436 48.3634C8.68316 48.3361 8.50781 48.4223 8.38918 48.3823C8.27056 48.3424 8.22156 48.1826 8.11068 48.13C7.99979 48.0774 7.80638 48.13 7.70581 48.0585C7.60524 47.987 7.60782 47.8314 7.51756 47.7578C7.42731 47.6842 7.22616 47.6884 7.14622 47.6043C7.06628 47.5202 7.12559 47.3646 7.06112 47.2721C6.99666 47.1795 6.80325 47.1438 6.75167 47.0471C6.7001 46.9503 6.80841 46.8116 6.77488 46.7085C6.74136 46.6055 6.56343 46.5298 6.54795 46.4246C6.53248 46.3195 6.67689 46.2102 6.67689 46.1029ZM12.608 47.4382C12.608 47.3688 12.4585 47.291 12.4688 47.2279C12.4791 47.1648 12.6493 47.1144 12.6699 47.0471C12.6905 46.9798 12.5745 46.8746 12.6054 46.8116C12.6364 46.7485 12.8143 46.7401 12.8633 46.6812C12.9123 46.6223 12.8246 46.4919 12.8633 46.4373C12.902 46.3826 13.0877 46.4141 13.147 46.3658C13.2063 46.3174 13.1702 46.1744 13.2372 46.1323C13.3043 46.0903 13.4616 46.1576 13.5338 46.1218C13.606 46.0861 13.6163 45.9452 13.6937 45.9116C13.771 45.8779 13.9026 45.9809 13.9851 45.9641C14.0676 45.9473 14.1192 45.8085 14.2043 45.8001C14.2894 45.7917 14.3822 45.9116 14.4621 45.9116C14.5421 45.9116 14.6427 45.7917 14.72 45.8001C14.7974 45.8085 14.8593 45.9452 14.9418 45.9641C15.0243 45.9831 15.1533 45.8842 15.2332 45.9116C15.3131 45.9389 15.3183 46.0819 15.3931 46.1218C15.4679 46.1618 15.6226 46.0924 15.6896 46.1345C15.7567 46.1765 15.718 46.3153 15.7799 46.3658C15.8418 46.4162 16.012 46.3826 16.0636 46.4373C16.1151 46.4919 16.0326 46.6202 16.0764 46.6812C16.1203 46.7422 16.2956 46.7464 16.3343 46.8116C16.373 46.8767 16.2492 46.9819 16.2699 47.0492C16.2905 47.1165 16.4607 47.1585 16.471 47.2279C16.4813 47.2973 16.3343 47.373 16.3343 47.4382C16.3343 47.5034 16.4813 47.5875 16.471 47.6485C16.4607 47.7094 16.2931 47.762 16.2699 47.8272C16.2466 47.8924 16.3678 48.0017 16.3343 48.0648C16.3008 48.1279 16.1254 48.1363 16.0764 48.1952C16.0274 48.2541 16.1151 48.3823 16.0636 48.437C16.012 48.4917 15.8392 48.4622 15.7773 48.5106C15.7154 48.559 15.7567 48.6999 15.6896 48.7419C15.6226 48.784 15.4653 48.7188 15.3905 48.7524C15.3157 48.7861 15.3106 48.9312 15.2306 48.9627C15.1507 48.9943 15.0243 48.8912 14.9418 48.9101C14.8593 48.9291 14.8051 49.0636 14.72 49.0742C14.6349 49.0847 14.5421 48.9606 14.4621 48.9606C14.3822 48.9606 14.2816 49.0826 14.2043 49.0742C14.1269 49.0658 14.0676 48.927 13.9851 48.9101C13.9026 48.8933 13.771 48.9879 13.6937 48.9627C13.6163 48.9375 13.6086 48.7924 13.5338 48.7524C13.459 48.7125 13.3043 48.784 13.2372 48.7419C13.1702 48.6999 13.2063 48.559 13.147 48.5106C13.0877 48.4622 12.9149 48.4917 12.8633 48.437C12.8117 48.3823 12.8917 48.2541 12.8633 48.1952C12.835 48.1363 12.6441 48.1279 12.6054 48.0648C12.5668 48.0017 12.6931 47.8945 12.6699 47.8272C12.6467 47.7599 12.4817 47.7179 12.4688 47.6485C12.4559 47.5791 12.608 47.5097 12.608 47.4382ZM6.33907 28.2039C6.33907 28.0966 6.19209 27.9831 6.21014 27.8801C6.22819 27.777 6.40354 27.6971 6.43449 27.5962C6.46543 27.4952 6.36486 27.3544 6.41386 27.2597C6.46285 27.1651 6.67173 27.123 6.72331 27.0326C6.77488 26.9422 6.72331 26.7845 6.80841 26.7025C6.89351 26.6205 7.08949 26.6226 7.17975 26.549C7.27 26.4754 7.26485 26.3114 7.368 26.2462C7.47115 26.181 7.66197 26.2294 7.77286 26.1768C7.88375 26.1242 7.93017 25.9665 8.05137 25.9245C8.17257 25.8824 8.34019 25.9686 8.46397 25.9413C8.58775 25.9139 8.68316 25.7709 8.8121 25.7583C8.94104 25.7457 9.06997 25.8635 9.20923 25.8635C9.34848 25.8635 9.4671 25.7436 9.60378 25.7583C9.74045 25.7731 9.82813 25.916 9.95191 25.9413C10.0757 25.9665 10.2485 25.8845 10.3671 25.9245C10.4857 25.9644 10.5321 26.1242 10.643 26.1768C10.7539 26.2294 10.9473 26.1768 11.0505 26.2462C11.1536 26.3156 11.1459 26.4754 11.2361 26.549C11.3264 26.6226 11.5301 26.6184 11.6075 26.7025C11.6848 26.7866 11.6281 26.9422 11.6926 27.0326C11.757 27.123 11.9504 27.1609 12.002 27.2597C12.0536 27.3586 11.9479 27.4952 11.9814 27.5962C12.0149 27.6971 12.1903 27.777 12.2057 27.8822C12.2212 27.9873 12.0768 28.0924 12.0768 28.2039C12.0768 28.3153 12.2238 28.4142 12.2057 28.5256C12.1877 28.6371 12.0123 28.7086 11.9814 28.8095C11.9504 28.9104 12.051 29.0513 12.002 29.148C11.953 29.2448 11.7441 29.2826 11.6926 29.373C11.641 29.4635 11.6926 29.6212 11.6075 29.7053C11.5224 29.7894 11.329 29.7831 11.2361 29.8588C11.1433 29.9345 11.151 30.0964 11.0479 30.1595C10.9447 30.2226 10.7539 30.1763 10.643 30.231C10.5321 30.2857 10.4857 30.4413 10.3645 30.4812C10.2433 30.5212 10.0757 30.4371 9.95191 30.4644C9.82813 30.4917 9.73271 30.6347 9.60378 30.6494C9.47484 30.6642 9.3459 30.5422 9.20923 30.5422C9.07255 30.5422 8.95135 30.6621 8.8121 30.6473C8.67285 30.6326 8.58775 30.4896 8.46397 30.4644C8.34019 30.4392 8.16741 30.5212 8.05137 30.4812C7.93532 30.4413 7.88375 30.2815 7.77286 30.2289C7.66197 30.1763 7.46857 30.2289 7.36542 30.1595C7.26227 30.0901 7.27 29.9324 7.17975 29.8567C7.08949 29.781 6.88577 29.7873 6.80841 29.7053C6.73104 29.6233 6.78778 29.4635 6.72331 29.373C6.65884 29.2826 6.46543 29.2448 6.41386 29.148C6.36228 29.0513 6.46801 28.9104 6.43449 28.8095C6.40096 28.7086 6.22561 28.6308 6.21014 28.5256C6.19466 28.4205 6.33907 28.309 6.33907 28.2039ZM1.08615 32.4852C1.08615 32.38 0.941742 32.2749 0.957215 32.1635C0.972687 32.052 1.15062 31.9805 1.18414 31.8796C1.21767 31.7786 1.11194 31.6378 1.16094 31.541C1.20993 31.4443 1.41881 31.4065 1.47039 31.316C1.52196 31.2256 1.47039 31.0679 1.55549 30.9838C1.64058 30.8997 1.83657 30.906 1.92683 30.8303C2.01708 30.7546 2.01192 30.5927 2.11507 30.5296C2.21822 30.4665 2.40905 30.5107 2.51994 30.4581C2.63083 30.4055 2.67982 30.2478 2.79844 30.2079C2.91707 30.1679 3.08727 30.252 3.21362 30.2247C3.33998 30.1973 3.43282 30.0544 3.56176 30.0396C3.69069 30.0249 3.81963 30.1469 3.9563 30.1469C4.09298 30.1469 4.21418 30.027 4.35086 30.0396C4.48753 30.0522 4.57521 30.1973 4.69899 30.2247C4.82277 30.252 4.99554 30.1679 5.11417 30.2079C5.23279 30.2478 5.27921 30.4076 5.39009 30.4581C5.50098 30.5086 5.69438 30.4581 5.79753 30.5296C5.90068 30.6011 5.89553 30.7567 5.98578 30.8324C6.07604 30.9081 6.27718 30.9018 6.35455 30.9838C6.43191 31.0658 6.37775 31.2256 6.44222 31.316C6.50669 31.4065 6.7001 31.4443 6.75167 31.541C6.80325 31.6378 6.69494 31.7786 6.72846 31.8796C6.76199 31.9805 6.93735 32.0583 6.9554 32.1635C6.97345 32.2686 6.82646 32.3737 6.82646 32.4852C6.82646 32.5966 6.97087 32.706 6.9554 32.8069C6.93992 32.9078 6.76199 32.992 6.72846 33.0929C6.69494 33.1938 6.80067 33.3347 6.75167 33.4293C6.70268 33.524 6.4938 33.566 6.44222 33.6564C6.39065 33.7469 6.44222 33.9046 6.35455 33.9866C6.26687 34.0686 6.07604 34.0665 5.98578 34.1401C5.89553 34.2137 5.89811 34.3777 5.79753 34.4429C5.69696 34.5081 5.50356 34.4597 5.39009 34.5123C5.27663 34.5649 5.23279 34.7226 5.11417 34.7646C4.99554 34.8067 4.82277 34.7184 4.69899 34.7457C4.57521 34.773 4.47979 34.9181 4.35086 34.9307C4.22192 34.9434 4.09298 34.8256 3.9563 34.8256C3.81963 34.8256 3.69843 34.9455 3.56176 34.9307C3.42508 34.916 3.33483 34.773 3.21362 34.7457C3.09242 34.7184 2.91707 34.8046 2.79844 34.7646C2.67982 34.7247 2.63083 34.5649 2.51994 34.5123C2.40905 34.4597 2.21565 34.5123 2.11507 34.4429C2.0145 34.3735 2.01708 34.2137 1.92683 34.1401C1.83657 34.0665 1.63543 34.0707 1.55549 33.9866C1.47554 33.9025 1.53486 33.7469 1.47039 33.6564C1.40592 33.566 1.21251 33.5282 1.16094 33.4293C1.10936 33.3305 1.21767 33.1938 1.18414 33.0908C1.15062 32.9878 0.972687 32.9121 0.957215 32.8069C0.941742 32.7018 1.08615 32.5924 1.08615 32.4852Z" fill="#92E3A9"/>
<path opacity="0.53" d="M10.2717 42.2254C10.2717 42.3095 10.4264 42.3725 10.4522 42.4525C10.478 42.5324 10.3955 42.6438 10.4341 42.7195C10.4728 42.7952 10.6275 42.8267 10.692 42.8982C10.7565 42.9697 10.692 43.0959 10.7591 43.1611C10.8261 43.2263 10.9808 43.2242 11.053 43.2831C11.1252 43.3419 11.1227 43.4723 11.2026 43.5228C11.2825 43.5732 11.4373 43.5375 11.5249 43.5796C11.6126 43.6216 11.6513 43.7478 11.7441 43.7793C11.837 43.8109 11.9762 43.7436 12.0742 43.7646C12.1722 43.7856 12.2496 43.8992 12.3501 43.9118C12.4507 43.9244 12.5616 43.8277 12.6648 43.8277C12.7679 43.8277 12.8762 43.9223 12.9768 43.9118C13.0774 43.9013 13.1547 43.7856 13.2527 43.7646C13.3507 43.7436 13.49 43.8109 13.5828 43.7793C13.6756 43.7478 13.7143 43.6195 13.802 43.5796C13.8897 43.5396 14.0444 43.5796 14.1243 43.5228C14.2043 43.466 14.2017 43.3419 14.2739 43.2831C14.3461 43.2242 14.506 43.2284 14.5679 43.1611C14.6298 43.0938 14.5833 42.9718 14.6349 42.8982C14.6865 42.8246 14.8412 42.7973 14.8928 42.7195C14.9444 42.6417 14.849 42.5324 14.8773 42.4525C14.9057 42.3725 15.0424 42.3095 15.0553 42.2254C15.0682 42.1412 14.9547 42.055 14.9547 41.9709C14.9547 41.8868 15.0682 41.7964 15.0553 41.7165C15.0424 41.6366 14.9031 41.5693 14.8773 41.4894C14.8515 41.4095 14.9341 41.298 14.8954 41.2223C14.8567 41.1466 14.6994 41.1151 14.6375 41.0436C14.5756 40.9721 14.6375 40.8459 14.5705 40.7807C14.5034 40.7155 14.3487 40.7176 14.2765 40.6588C14.2043 40.5999 14.2094 40.4695 14.1269 40.419C14.0444 40.3686 13.8948 40.4043 13.8046 40.3623C13.7143 40.3202 13.6808 40.194 13.5854 40.1625C13.49 40.131 13.3559 40.1982 13.2553 40.1772C13.1547 40.1562 13.0825 40.0426 12.9794 40.03C12.8762 40.0174 12.7705 40.1141 12.6673 40.1141C12.5642 40.1141 12.4533 40.0195 12.3527 40.03C12.2522 40.0405 12.1748 40.1562 12.0768 40.1772C11.9788 40.1982 11.8421 40.131 11.7493 40.1625C11.6565 40.194 11.6152 40.3202 11.5275 40.3623C11.4398 40.4043 11.2877 40.3623 11.2052 40.419C11.1227 40.4758 11.1278 40.5999 11.0556 40.6588C10.9834 40.7176 10.8261 40.7134 10.7642 40.7786C10.7023 40.8438 10.7462 40.97 10.6946 41.0415C10.643 41.113 10.4883 41.1445 10.4367 41.2223C10.3851 41.3001 10.4806 41.4095 10.4548 41.4894C10.429 41.5693 10.2871 41.6324 10.2743 41.7144C10.2614 41.7964 10.3774 41.8868 10.3774 41.9709C10.3774 42.055 10.2588 42.1454 10.2717 42.2254ZM7.0276 36.6992C7.0276 36.592 6.88061 36.4889 6.89866 36.3775C6.91671 36.266 7.09207 36.1924 7.12559 36.0915C7.15912 35.9906 7.05339 35.8497 7.10239 35.755C7.15138 35.6604 7.34737 35.6184 7.41183 35.5279C7.4763 35.4375 7.41184 35.2798 7.49693 35.1978C7.58203 35.1158 7.77802 35.1179 7.86828 35.0443C7.95853 34.9707 7.95337 34.8067 8.05652 34.7415C8.15967 34.6763 8.3505 34.7247 8.46139 34.6721C8.57227 34.6195 8.61869 34.4618 8.73989 34.4198C8.86109 34.3777 9.02871 34.466 9.15507 34.4387C9.28143 34.4113 9.37427 34.2663 9.5032 34.2536C9.63214 34.241 9.76108 34.3588 9.89775 34.3588C10.0344 34.3588 10.1556 34.2389 10.2923 34.2536C10.429 34.2684 10.5167 34.4113 10.6404 34.4387C10.7642 34.466 10.937 34.3798 11.0556 34.4198C11.1742 34.4597 11.2207 34.6195 11.3315 34.6721C11.4424 34.7247 11.6358 34.6721 11.739 34.7415C11.8421 34.8109 11.8344 34.9707 11.9272 35.0443C12.0201 35.1179 12.2186 35.1137 12.296 35.1978C12.3734 35.2819 12.3192 35.4375 12.3837 35.5279C12.4481 35.6184 12.6415 35.6562 12.6905 35.755C12.7395 35.8539 12.6364 35.9906 12.6699 36.0936C12.7034 36.1966 12.8788 36.2723 12.8968 36.3775C12.9149 36.4826 12.7653 36.5877 12.7653 36.6992C12.7653 36.8106 12.9123 36.9095 12.8968 37.0209C12.8814 37.1324 12.7034 37.2039 12.6699 37.3048C12.6364 37.4057 12.7395 37.5466 12.6905 37.6434C12.6415 37.7401 12.4456 37.7779 12.3837 37.8684C12.3218 37.9588 12.3837 38.1165 12.296 38.2006C12.2083 38.2847 12.0175 38.2784 11.9247 38.3541C11.8318 38.4298 11.8396 38.5917 11.739 38.6548C11.6384 38.7179 11.4424 38.6737 11.3315 38.7263C11.2207 38.7789 11.1742 38.9366 11.0556 38.9765C10.937 39.0165 10.7642 38.9324 10.6404 38.9597C10.5167 38.987 10.4212 39.13 10.2923 39.1447C10.1634 39.1595 10.0344 39.0375 9.89775 39.0375C9.76108 39.0375 9.63988 39.1574 9.5032 39.1447C9.36653 39.1321 9.27627 38.987 9.15249 38.9597C9.02871 38.9324 8.85594 39.0165 8.73989 38.9765C8.62385 38.9366 8.57227 38.7768 8.46139 38.7263C8.3505 38.6758 8.15709 38.7263 8.05652 38.6548C7.95595 38.5833 7.95853 38.4277 7.86828 38.352C7.77802 38.2763 7.57688 38.2826 7.49693 38.2006C7.41699 38.1186 7.4763 37.9588 7.41183 37.8684C7.34737 37.7779 7.15396 37.7401 7.10239 37.6434C7.05081 37.5466 7.15654 37.4057 7.12559 37.3048C7.09465 37.2039 6.91414 37.1261 6.89866 37.0209C6.88319 36.9158 7.0276 36.8148 7.0276 36.6992ZM6.67689 46.1029C6.67689 45.9957 6.53248 45.8926 6.54795 45.7812C6.56343 45.6697 6.74136 45.5982 6.77488 45.4973C6.80841 45.3964 6.70268 45.2555 6.75167 45.1588C6.80067 45.062 7.00955 45.0221 7.06112 44.9317C7.1127 44.8412 7.06112 44.6835 7.14622 44.6015C7.23132 44.5195 7.42731 44.5216 7.51756 44.448C7.60782 44.3744 7.60266 44.2104 7.70581 44.1452C7.80896 44.08 7.99979 44.1284 8.11068 44.0758C8.22156 44.0232 8.27056 43.8655 8.38918 43.8235C8.50781 43.7814 8.678 43.8697 8.80436 43.8424C8.93072 43.8151 9.02356 43.6721 9.15249 43.6574C9.28143 43.6426 9.41037 43.7625 9.54704 43.7625C9.68372 43.7625 9.80492 43.6447 9.94159 43.6574C10.0783 43.67 10.1659 43.8151 10.2897 43.8424C10.4135 43.8697 10.5863 43.7835 10.7049 43.8235C10.8235 43.8634 10.8699 44.0232 10.9808 44.0758C11.0917 44.1284 11.2851 44.0758 11.3883 44.1473C11.4914 44.2188 11.4837 44.3744 11.5765 44.448C11.6694 44.5216 11.8679 44.5195 11.9453 44.6015C12.0226 44.6835 11.9685 44.8412 12.033 44.9338C12.0974 45.0263 12.2908 45.062 12.3424 45.1588C12.394 45.2555 12.2857 45.3943 12.3192 45.4973C12.3527 45.6003 12.5281 45.676 12.5461 45.7812C12.5642 45.8863 12.4172 45.9915 12.4172 46.1029C12.4172 46.2144 12.5616 46.3132 12.5461 46.4246C12.5307 46.5361 12.3527 46.6076 12.3192 46.7085C12.2857 46.8094 12.3914 46.9503 12.3424 47.0471C12.2934 47.1438 12.0845 47.1837 12.033 47.2742C11.9814 47.3646 12.033 47.5223 11.9453 47.6043C11.8576 47.6863 11.6668 47.6842 11.5765 47.7578C11.4863 47.8314 11.4888 47.9954 11.3883 48.0606C11.2877 48.1258 11.0917 48.0774 10.9808 48.13C10.8699 48.1826 10.8235 48.3403 10.7049 48.3823C10.5863 48.4244 10.4135 48.3361 10.2897 48.3634C10.1659 48.3908 10.0705 48.5337 9.94159 48.5485C9.81266 48.5632 9.68372 48.4433 9.54704 48.4433C9.41037 48.4433 9.28917 48.5611 9.15249 48.5485C9.01582 48.5358 8.92556 48.3908 8.80436 48.3634C8.68316 48.3361 8.50781 48.4223 8.38918 48.3823C8.27056 48.3424 8.22156 48.1826 8.11068 48.13C7.99979 48.0774 7.80638 48.13 7.70581 48.0585C7.60524 47.987 7.60782 47.8314 7.51756 47.7578C7.42731 47.6842 7.22616 47.6884 7.14622 47.6043C7.06628 47.5202 7.12559 47.3646 7.06112 47.2721C6.99666 47.1795 6.80325 47.1438 6.75167 47.0471C6.7001 46.9503 6.80841 46.8116 6.77488 46.7085C6.74136 46.6055 6.56343 46.5298 6.54795 46.4246C6.53248 46.3195 6.67689 46.2102 6.67689 46.1029ZM12.608 47.4382C12.608 47.3688 12.4585 47.291 12.4688 47.2279C12.4791 47.1648 12.6493 47.1144 12.6699 47.0471C12.6905 46.9798 12.5745 46.8746 12.6054 46.8116C12.6364 46.7485 12.8143 46.7401 12.8633 46.6812C12.9123 46.6223 12.8246 46.4919 12.8633 46.4373C12.902 46.3826 13.0877 46.4141 13.147 46.3658C13.2063 46.3174 13.1702 46.1744 13.2372 46.1323C13.3043 46.0903 13.4616 46.1576 13.5338 46.1218C13.606 46.0861 13.6163 45.9452 13.6937 45.9116C13.771 45.8779 13.9026 45.9809 13.9851 45.9641C14.0676 45.9473 14.1192 45.8085 14.2043 45.8001C14.2894 45.7917 14.3822 45.9116 14.4621 45.9116C14.5421 45.9116 14.6427 45.7917 14.72 45.8001C14.7974 45.8085 14.8593 45.9452 14.9418 45.9641C15.0243 45.9831 15.1533 45.8842 15.2332 45.9116C15.3131 45.9389 15.3183 46.0819 15.3931 46.1218C15.4679 46.1618 15.6226 46.0924 15.6896 46.1345C15.7567 46.1765 15.718 46.3153 15.7799 46.3658C15.8418 46.4162 16.012 46.3826 16.0636 46.4373C16.1151 46.4919 16.0326 46.6202 16.0764 46.6812C16.1203 46.7422 16.2956 46.7464 16.3343 46.8116C16.373 46.8767 16.2492 46.9819 16.2699 47.0492C16.2905 47.1165 16.4607 47.1585 16.471 47.2279C16.4813 47.2973 16.3343 47.373 16.3343 47.4382C16.3343 47.5034 16.4813 47.5875 16.471 47.6485C16.4607 47.7094 16.2931 47.762 16.2699 47.8272C16.2466 47.8924 16.3678 48.0017 16.3343 48.0648C16.3008 48.1279 16.1254 48.1363 16.0764 48.1952C16.0274 48.2541 16.1151 48.3823 16.0636 48.437C16.012 48.4917 15.8392 48.4622 15.7773 48.5106C15.7154 48.559 15.7567 48.6999 15.6896 48.7419C15.6226 48.784 15.4653 48.7188 15.3905 48.7524C15.3157 48.7861 15.3106 48.9312 15.2306 48.9627C15.1507 48.9943 15.0243 48.8912 14.9418 48.9101C14.8593 48.9291 14.8051 49.0636 14.72 49.0742C14.6349 49.0847 14.5421 48.9606 14.4621 48.9606C14.3822 48.9606 14.2816 49.0826 14.2043 49.0742C14.1269 49.0658 14.0676 48.927 13.9851 48.9101C13.9026 48.8933 13.771 48.9879 13.6937 48.9627C13.6163 48.9375 13.6086 48.7924 13.5338 48.7524C13.459 48.7125 13.3043 48.784 13.2372 48.7419C13.1702 48.6999 13.2063 48.559 13.147 48.5106C13.0877 48.4622 12.9149 48.4917 12.8633 48.437C12.8117 48.3823 12.8917 48.2541 12.8633 48.1952C12.835 48.1363 12.6441 48.1279 12.6054 48.0648C12.5668 48.0017 12.6931 47.8945 12.6699 47.8272C12.6467 47.7599 12.4817 47.7179 12.4688 47.6485C12.4559 47.5791 12.608 47.5097 12.608 47.4382ZM6.33907 28.2039C6.33907 28.0966 6.19209 27.9831 6.21014 27.8801C6.22819 27.777 6.40354 27.6971 6.43449 27.5962C6.46543 27.4952 6.36486 27.3544 6.41386 27.2597C6.46285 27.1651 6.67173 27.123 6.72331 27.0326C6.77488 26.9422 6.72331 26.7845 6.80841 26.7025C6.89351 26.6205 7.08949 26.6226 7.17975 26.549C7.27 26.4754 7.26485 26.3114 7.368 26.2462C7.47115 26.181 7.66197 26.2294 7.77286 26.1768C7.88375 26.1242 7.93017 25.9665 8.05137 25.9245C8.17257 25.8824 8.34019 25.9686 8.46397 25.9413C8.58775 25.9139 8.68316 25.7709 8.8121 25.7583C8.94104 25.7457 9.06997 25.8635 9.20923 25.8635C9.34848 25.8635 9.4671 25.7436 9.60378 25.7583C9.74045 25.7731 9.82813 25.916 9.95191 25.9413C10.0757 25.9665 10.2485 25.8845 10.3671 25.9245C10.4857 25.9644 10.5321 26.1242 10.643 26.1768C10.7539 26.2294 10.9473 26.1768 11.0505 26.2462C11.1536 26.3156 11.1459 26.4754 11.2361 26.549C11.3264 26.6226 11.5301 26.6184 11.6075 26.7025C11.6848 26.7866 11.6281 26.9422 11.6926 27.0326C11.757 27.123 11.9504 27.1609 12.002 27.2597C12.0536 27.3586 11.9479 27.4952 11.9814 27.5962C12.0149 27.6971 12.1903 27.777 12.2057 27.8822C12.2212 27.9873 12.0768 28.0924 12.0768 28.2039C12.0768 28.3153 12.2238 28.4142 12.2057 28.5256C12.1877 28.6371 12.0123 28.7086 11.9814 28.8095C11.9504 28.9104 12.051 29.0513 12.002 29.148C11.953 29.2448 11.7441 29.2826 11.6926 29.373C11.641 29.4635 11.6926 29.6212 11.6075 29.7053C11.5224 29.7894 11.329 29.7831 11.2361 29.8588C11.1433 29.9345 11.151 30.0964 11.0479 30.1595C10.9447 30.2226 10.7539 30.1763 10.643 30.231C10.5321 30.2857 10.4857 30.4413 10.3645 30.4812C10.2433 30.5212 10.0757 30.4371 9.95191 30.4644C9.82813 30.4917 9.73271 30.6347 9.60378 30.6494C9.47484 30.6642 9.3459 30.5422 9.20923 30.5422C9.07255 30.5422 8.95135 30.6621 8.8121 30.6473C8.67285 30.6326 8.58775 30.4896 8.46397 30.4644C8.34019 30.4392 8.16741 30.5212 8.05137 30.4812C7.93532 30.4413 7.88375 30.2815 7.77286 30.2289C7.66197 30.1763 7.46857 30.2289 7.36542 30.1595C7.26227 30.0901 7.27 29.9324 7.17975 29.8567C7.08949 29.781 6.88577 29.7873 6.80841 29.7053C6.73104 29.6233 6.78778 29.4635 6.72331 29.373C6.65884 29.2826 6.46543 29.2448 6.41386 29.148C6.36228 29.0513 6.46801 28.9104 6.43449 28.8095C6.40096 28.7086 6.22561 28.6308 6.21014 28.5256C6.19466 28.4205 6.33907 28.309 6.33907 28.2039ZM1.08615 32.4852C1.08615 32.38 0.941742 32.2749 0.957215 32.1635C0.972687 32.052 1.15062 31.9805 1.18414 31.8796C1.21767 31.7786 1.11194 31.6378 1.16094 31.541C1.20993 31.4443 1.41881 31.4065 1.47039 31.316C1.52196 31.2256 1.47039 31.0679 1.55549 30.9838C1.64058 30.8997 1.83657 30.906 1.92683 30.8303C2.01708 30.7546 2.01192 30.5927 2.11507 30.5296C2.21822 30.4665 2.40905 30.5107 2.51994 30.4581C2.63083 30.4055 2.67982 30.2478 2.79844 30.2079C2.91707 30.1679 3.08727 30.252 3.21362 30.2247C3.33998 30.1973 3.43282 30.0544 3.56176 30.0396C3.69069 30.0249 3.81963 30.1469 3.9563 30.1469C4.09298 30.1469 4.21418 30.027 4.35086 30.0396C4.48753 30.0522 4.57521 30.1973 4.69899 30.2247C4.82277 30.252 4.99554 30.1679 5.11417 30.2079C5.23279 30.2478 5.27921 30.4076 5.39009 30.4581C5.50098 30.5086 5.69438 30.4581 5.79753 30.5296C5.90068 30.6011 5.89553 30.7567 5.98578 30.8324C6.07604 30.9081 6.27718 30.9018 6.35455 30.9838C6.43191 31.0658 6.37775 31.2256 6.44222 31.316C6.50669 31.4065 6.7001 31.4443 6.75167 31.541C6.80325 31.6378 6.69494 31.7786 6.72846 31.8796C6.76199 31.9805 6.93735 32.0583 6.9554 32.1635C6.97345 32.2686 6.82646 32.3737 6.82646 32.4852C6.82646 32.5966 6.97087 32.706 6.9554 32.8069C6.93992 32.9078 6.76199 32.992 6.72846 33.0929C6.69494 33.1938 6.80067 33.3347 6.75167 33.4293C6.70268 33.524 6.4938 33.566 6.44222 33.6564C6.39065 33.7469 6.44222 33.9046 6.35455 33.9866C6.26687 34.0686 6.07604 34.0665 5.98578 34.1401C5.89553 34.2137 5.89811 34.3777 5.79753 34.4429C5.69696 34.5081 5.50356 34.4597 5.39009 34.5123C5.27663 34.5649 5.23279 34.7226 5.11417 34.7646C4.99554 34.8067 4.82277 34.7184 4.69899 34.7457C4.57521 34.773 4.47979 34.9181 4.35086 34.9307C4.22192 34.9434 4.09298 34.8256 3.9563 34.8256C3.81963 34.8256 3.69843 34.9455 3.56176 34.9307C3.42508 34.916 3.33483 34.773 3.21362 34.7457C3.09242 34.7184 2.91707 34.8046 2.79844 34.7646C2.67982 34.7247 2.63083 34.5649 2.51994 34.5123C2.40905 34.4597 2.21565 34.5123 2.11507 34.4429C2.0145 34.3735 2.01708 34.2137 1.92683 34.1401C1.83657 34.0665 1.63543 34.0707 1.55549 33.9866C1.47554 33.9025 1.53486 33.7469 1.47039 33.6564C1.40592 33.566 1.21251 33.5282 1.16094 33.4293C1.10936 33.3305 1.21767 33.1938 1.18414 33.0908C1.15062 32.9878 0.972687 32.9121 0.957215 32.8069C0.941742 32.7018 1.08615 32.5924 1.08615 32.4852Z" fill="white"/>
<path d="M31.3721 60.5323L23.2 60.2841C23.116 60.2802 23.0319 60.2907 22.9533 60.3151C22.8746 60.3395 22.8031 60.3771 22.7435 60.4255C22.6839 60.4739 22.6374 60.5321 22.6072 60.5961C22.577 60.6602 22.5637 60.7287 22.5682 60.7972C22.5679 60.8275 22.5755 60.8575 22.5907 60.8851C22.6058 60.9128 22.6281 60.9374 22.656 60.9574C22.684 60.9773 22.7168 60.9921 22.7524 61.0008C22.788 61.0095 22.8254 61.0117 22.8622 61.0075C23.1745 61.0171 23.4847 60.9629 23.7648 60.8498L30.2117 62.4269C30.2117 62.4269 32.3391 62.8453 31.3721 60.5323Z" fill="#263238" stroke="#263238" stroke-linecap="round" stroke-linejoin="round"/>
<path d="M31.0507 54.8547V61.058L19.8976 65.7893C19.8976 65.7893 19.0595 66.7355 20.0265 66.8407C20.1762 66.8699 20.3319 66.8718 20.4826 66.8464C20.6333 66.8209 20.7752 66.7687 20.8984 66.6934C21.0215 66.6181 21.1227 66.5216 21.1949 66.4108C21.267 66.2999 21.3084 66.1775 21.3159 66.0521C21.3159 66.0521 33.436 63.0556 33.6939 63.0556C33.9518 63.0556 45.4272 65.579 45.4272 65.579C45.4272 65.579 44.976 65.9996 45.8141 66.2098C46.6521 66.4201 46.7166 65.579 46.4587 65.2636C46.2009 64.9482 33.9518 60.6374 33.9518 60.6374V55.0124L31.0507 54.8547Z" fill="#263238" stroke="#263238" stroke-linecap="round" stroke-linejoin="round"/>
<path d="M48.6721 41.3169C48.1174 41.2446 47.5814 41.0975 47.0861 40.8816C46.1298 40.4434 45.2289 39.9292 44.3965 39.3465C42.2639 37.8662 40.2009 34.8255 38.3957 33.1959C36.5906 31.5662 33.1093 30.6725 28.1452 31.0931C23.1811 31.5136 20.6668 33.1433 19.6998 35.2461C18.7327 37.3489 18.6038 39.3465 17.5723 41.1865C16.5408 43.0264 14.3489 43.7099 14.7357 45.6024C15.1225 47.4949 17.3789 50.5965 22.0206 53.0147C26.6624 55.433 32.1423 56.3266 38.2668 55.8009C44.3913 55.2752 46.9056 53.1199 49.0331 50.5965C51.1606 48.0732 51.4184 45.0767 51.0961 43.4996C50.8279 42.158 49.7139 41.4641 48.6721 41.3169Z" fill="white" stroke="#263238" stroke-linecap="round" stroke-linejoin="round"/>
<path opacity="0.17" d="M25.1663 33.7531C24.1412 34.1223 23.2064 34.6395 22.407 35.2798C20.1429 37.0756 21.1176 39.5548 20.393 41.7985C20.1292 42.5789 19.7671 43.3351 19.3125 44.0548C19.3125 44.0548 20.1996 48.5632 23.7531 50.3337C27.3066 52.1043 33.0366 53.3113 37.8666 52.5858C42.6966 51.8603 45.2677 49.7702 46.4513 47.9996C47.635 46.229 47.1321 43.3335 44.0685 41.6513C41.005 39.969 39.0348 36.5814 36.2704 34.9728C32.9799 33.0466 28.6966 32.481 25.1663 33.7531Z" fill="black"/>
<path d="M49.6238 41.6093C49.3845 41.6123 49.1458 41.6292 48.9095 41.6597C48.9095 41.6597 47.4911 41.6072 46.5886 43.4471C45.686 45.2871 46.3307 47.3373 45.1703 48.8092C44.0098 50.2812 43.1073 50.4389 35.6933 50.4915C28.2794 50.544 25.7007 51.5954 22.7351 48.4412C19.7695 45.2871 20.93 43.71 18.4802 42.974C17.2707 42.6102 16.4868 42.7343 15.9014 43.098C15.1278 43.8319 14.5115 44.5195 14.7332 45.6025C15.12 47.495 17.3765 50.5966 22.0182 53.0148C26.66 55.4331 32.1398 56.3267 38.2644 55.801C44.3889 55.2753 46.9032 53.12 49.0307 50.5966C51.1581 48.0733 51.416 45.0768 51.0937 43.4997C51.0339 43.1159 50.8712 42.7476 50.6171 42.4209C50.3631 42.0941 50.0239 41.817 49.6238 41.6093Z" fill="white"/>
<mask id="mask1_132_22508" style="mask-type:luminance" maskUnits="userSpaceOnUse" x="14" y="41" width="38" height="15">
<path d="M49.6208 41.6093C49.3816 41.6123 49.1429 41.6292 48.9065 41.6597C48.9065 41.6597 47.4882 41.6072 46.5857 43.4471C45.6831 45.2871 46.3278 47.3373 45.1673 48.8092C44.0069 50.2812 43.1043 50.4389 35.6904 50.4915C28.2765 50.544 25.6977 51.5954 22.7322 48.4412C19.7666 45.2871 20.9271 43.71 18.4772 42.974C17.2678 42.6102 16.4839 42.7343 15.8985 43.098C15.1249 43.8319 14.5085 44.5195 14.7303 45.6025C15.1171 47.495 17.3735 50.5966 22.0153 53.0148C26.657 55.4331 32.1369 56.3267 38.2614 55.801C44.386 55.2753 46.9003 53.12 49.0277 50.5966C51.1552 48.0733 51.4131 45.0768 51.0907 43.4997C51.0309 43.1159 50.8682 42.7476 50.6142 42.4209C50.3602 42.0941 50.021 41.817 49.6208 41.6093Z" fill="white"/>
</mask>
<g mask="url(#mask1_132_22508)">
<path opacity="0.17" d="M49.6208 41.6093C49.3816 41.6123 49.1429 41.6292 48.9065 41.6597C48.9065 41.6597 47.4882 41.6072 46.5857 43.4471C45.6831 45.2871 46.3278 47.3373 45.1673 48.8092C44.0069 50.2812 43.1043 50.4389 35.6904 50.4915C28.2765 50.544 25.6977 51.5954 22.7322 48.4412C19.7666 45.2871 20.9271 43.71 18.4772 42.974C17.2678 42.6102 16.4839 42.7343 15.8985 43.098C15.1249 43.8319 14.5085 44.5195 14.7303 45.6025C15.1171 47.495 17.3735 50.5966 22.0153 53.0148C26.657 55.4331 32.1369 56.3267 38.2614 55.801C44.386 55.2753 46.9003 53.12 49.0277 50.5966C51.1552 48.0733 51.4131 45.0768 51.0907 43.4997C51.0309 43.1159 50.8682 42.7476 50.6142 42.4209C50.3602 42.0941 50.021 41.817 49.6208 41.6093Z" fill="black"/>
</g>
<path d="M49.6238 41.6093C49.3845 41.6123 49.1458 41.6292 48.9095 41.6597C48.9095 41.6597 47.4911 41.6072 46.5886 43.4471C45.686 45.2871 46.3307 47.3373 45.1703 48.8092C44.0098 50.2812 43.1073 50.4389 35.6933 50.4915C28.2794 50.544 25.7007 51.5954 22.7351 48.4412C19.7695 45.2871 20.93 43.71 18.4802 42.974C17.2707 42.6102 16.4868 42.7343 15.9014 43.098C15.1278 43.8319 14.5115 44.5195 14.7332 45.6025C15.12 47.495 17.3765 50.5966 22.0182 53.0148C26.66 55.4331 32.1398 56.3267 38.2644 55.801C44.3889 55.2753 46.9032 53.12 49.0307 50.5966C51.1581 48.0733 51.416 45.0768 51.0937 43.4997C51.0339 43.1159 50.8712 42.7476 50.6171 42.4209C50.3631 42.0941 50.0239 41.817 49.6238 41.6093Z" stroke="#263238" stroke-linecap="round" stroke-linejoin="round"/>
<path d="M27.8223 39.5485C27.8223 39.5485 24.8568 42.177 24.0187 44.7003C23.1806 47.2237 24.5344 50.0099 26.9198 50.6933C29.3051 51.3767 32.7864 50.4305 34.3981 49.9048C36.0099 49.3791 38.3952 50.3253 41.0384 50.3779C43.6817 50.4305 44.0685 46.1281 43.4289 43.5438C42.7894 40.9595 39.9476 38.6548 37.1755 38.2868C34.4033 37.9188 29.2458 38.1375 27.8223 39.5485Z" fill="#263238" stroke="#263238" stroke-linecap="round" stroke-linejoin="round"/>
<path d="M37.7057 23.3569C37.7057 23.3569 40.2587 24.3788 41.5119 24.6522C42.7652 24.9256 45.6534 24.9277 45.7978 25.7919C45.9422 26.6562 45.3646 31.3685 45.0242 32.8994C44.6838 34.4302 44.64 36.7096 44.8308 37.2984C45.0216 37.8872 45.6044 38.8293 44.9288 39.7734C44.2532 40.7176 43.8689 41.933 42.3268 41.7353C40.7847 41.5377 40.4005 40.6356 40.4005 40.6356L31.0113 41.5797C31.0113 41.5797 30.2866 38.476 29.464 35.7276C28.6414 32.9793 26.96 29.0512 27.1044 27.1671C27.2489 25.283 30.235 24.1034 32.3058 23.5545C34.3765 23.0057 37.7057 23.3569 37.7057 23.3569Z" fill="#92E3A9"/>
<mask id="mask2_132_22508" style="mask-type:luminance" maskUnits="userSpaceOnUse" x="27" y="23" width="19" height="19">
<path d="M37.7057 23.357C37.7057 23.357 40.2587 24.379 41.5119 24.6523C42.7652 24.9257 45.6534 24.9278 45.7978 25.792C45.9422 26.6563 45.3646 31.3687 45.0242 32.8995C44.6838 34.4303 44.64 36.7098 44.8308 37.2985C45.0216 37.8873 45.6044 38.8294 44.9288 39.7735C44.2532 40.7177 43.8689 41.9331 42.3268 41.7355C40.7847 41.5378 40.4005 40.6357 40.4005 40.6357L31.0113 41.5798C31.0113 41.5798 30.2866 38.4761 29.464 35.7278C28.6414 32.9794 26.96 29.0514 27.1044 27.1673C27.2489 25.2832 30.235 24.1035 32.3058 23.5547C34.3765 23.0058 37.7057 23.357 37.7057 23.357Z" fill="white"/>
</mask>
<g mask="url(#mask2_132_22508)">
<path opacity="0.17" d="M44.6827 28.4794C44.4403 29.1103 43.3289 31.396 43.3289 31.396C43.3289 31.396 43.7698 29.2932 44.0664 27.611C44.363 25.9288 44.4352 26.1096 43.4759 26.1096C42.5166 26.1096 40.8223 25.4472 40.2344 25.2075C39.6464 24.9678 39.9378 25.5082 39.3499 25.1465C38.7619 24.7848 37.8748 23.6451 37.8748 23.6451C36.2528 23.3444 29.7698 24.0068 29.1792 25.5082C28.7847 26.5112 28.9833 31.6904 29.4371 35.6332L29.4681 35.732C30.0251 37.6035 30.5383 39.6369 30.809 40.7451C31.0594 41.043 31.3729 41.3022 31.7348 41.5105L40.3298 40.6483C41.3974 39.7105 42.2277 38.3983 42.5114 38.125C42.8441 37.8117 43.9117 37.225 43.9864 36.6825C44.0612 36.1399 43.6925 32.4159 44.0612 31.0953C44.3475 30.086 44.5847 28.9042 44.6827 28.4794ZM42.5913 34.5776C41.6346 35.5995 39.0533 34.8783 37.5808 34.4577C36.1084 34.0371 34.7803 35.2988 33.1583 34.9981C31.5362 34.6974 33.527 32.7755 35.59 32.7145C37.653 32.6535 37.1373 32.5946 38.9811 30.7925C40.8249 28.9904 41.9286 30.6117 42.6661 31.9932C42.8804 32.4038 42.9846 32.847 42.9717 33.293C42.9588 33.7391 42.8291 34.1778 42.5913 34.5797V34.5776Z" fill="black"/>
<path d="M44.7885 25.8341C44.7885 25.8341 44.7395 27.6783 44.3553 28.6603C43.971 29.6423 43.2954 31.3708 43.2954 32.3528C43.2954 33.3348 43.5352 34.7479 43.151 35.6521C42.7668 36.5563 41.0312 37.9651 41.0312 39.3425" stroke="#263238" stroke-linecap="round" stroke-linejoin="round"/>
</g>
<path d="M37.7057 23.3569C37.7057 23.3569 40.2587 24.3788 41.5119 24.6522C42.7652 24.9256 45.6534 24.9277 45.7978 25.7919C45.9422 26.6562 45.3646 31.3685 45.0242 32.8994C44.6838 34.4302 44.64 36.7096 44.8308 37.2984C45.0216 37.8872 45.6044 38.8293 44.9288 39.7734C44.2532 40.7176 43.8689 41.933 42.3268 41.7353C40.7847 41.5377 40.4005 40.6356 40.4005 40.6356L31.0113 41.5797C31.0113 41.5797 30.2866 38.476 29.464 35.7276C28.6414 32.9793 26.96 29.0512 27.1044 27.1671C27.2489 25.283 30.235 24.1034 32.3058 23.5545C34.3765 23.0057 37.7057 23.3569 37.7057 23.3569Z" stroke="#263238" stroke-linecap="round" stroke-linejoin="round"/>
<path d="M30.2439 33.0592C30.2439 33.0592 30.5328 35.8475 30.8216 37.1049C30.992 37.8307 31.1049 38.5647 31.1594 39.3024C31.1594 39.3024 32.3147 39.1068 32.5545 39.8533C32.683 40.2896 32.6562 40.7467 32.4771 41.171C32.298 41.5952 31.9742 41.969 31.5436 42.2484C30.5792 42.8372 29.2795 43.2304 28.3176 42.9949C27.3557 42.7594 27.0282 40.7954 27.0282 39.5778C27.0282 38.3603 27.0282 36.7895 26.595 35.8874C26.1618 34.9853 27.4022 32.0372 30.2439 33.0592Z" fill="#92E3A9"/>
<mask id="mask3_132_22508" style="mask-type:luminance" maskUnits="userSpaceOnUse" x="26" y="32" width="7" height="12">
<path d="M30.2439 33.0592C30.2439 33.0592 30.5328 35.8475 30.8216 37.1049C30.992 37.8307 31.1049 38.5647 31.1594 39.3024C31.1594 39.3024 32.3147 39.1068 32.5545 39.8533C32.683 40.2896 32.6562 40.7467 32.4771 41.171C32.298 41.5952 31.9742 41.969 31.5436 42.2484C30.5792 42.8372 29.2795 43.2304 28.3176 42.9949C27.3557 42.7594 27.0282 40.7954 27.0282 39.5778C27.0282 38.3603 27.0282 36.7895 26.595 35.8874C26.1618 34.9853 27.4022 32.0372 30.2439 33.0592Z" fill="white"/>
</mask>
<g mask="url(#mask3_132_22508)">
<path opacity="0.17" d="M31.3447 40.463C30.6407 40.5892 29.0806 40.7806 28.9233 40.2717C28.766 39.7628 29.8104 39.1845 29.8104 39.1845L30.6407 39.2518V38.806C30.6407 38.806 30.2513 36.1965 29.8671 35.2313C29.4829 34.2661 27.3683 35.2313 26.5869 35.8768C27.0227 36.7789 27.0227 38.3497 27.0227 39.5672C27.0227 40.7848 27.358 42.7488 28.3121 42.9843C29.2662 43.2198 30.5737 42.8266 31.5381 42.2378C32.0416 41.9192 32.3957 41.4694 32.5413 40.9635C32.4198 40.7967 32.2431 40.6612 32.0314 40.5727C31.8197 40.4842 31.5817 40.4461 31.3447 40.463Z" fill="black"/>
</g>
<path d="M30.2439 33.0592C30.2439 33.0592 30.5328 35.8475 30.8216 37.1049C30.992 37.8307 31.1049 38.5647 31.1594 39.3024C31.1594 39.3024 32.3147 39.1068 32.5545 39.8533C32.683 40.2896 32.6562 40.7467 32.4771 41.171C32.298 41.5952 31.9742 41.969 31.5436 42.2484C30.5792 42.8372 29.2795 43.2304 28.3176 42.9949C27.3557 42.7594 27.0282 40.7954 27.0282 39.5778C27.0282 38.3603 27.0282 36.7895 26.595 35.8874C26.1618 34.9853 27.4022 32.0372 30.2439 33.0592Z" stroke="#263238" stroke-linecap="round" stroke-linejoin="round"/>
<path d="M31.3979 39.4202C30.8624 39.3719 30.3316 39.2932 29.8094 39.1847C28.796 38.9891 28.1719 39.3823 27.9785 40.4821" stroke="#263238" stroke-linecap="round" stroke-linejoin="round"/>
<path d="M32.9416 25.0392C32.9416 25.0392 32.7972 26.7677 32.4594 28.2985C32.2781 29.187 31.9025 30.0417 31.3505 30.8219C31.3505 30.8219 31.3505 27.327 30.6775 25.6385C30.0044 23.95 30.2442 22.7324 31.2551 23.1151C32.266 23.4979 32.9416 25.0392 32.9416 25.0392Z" fill="#263238" stroke="#263238" stroke-linecap="round" stroke-linejoin="round"/>
<path d="M32.4086 25.1653C32.326 25.8836 32.326 26.6066 32.4086 27.3249C32.4836 27.893 32.6129 28.4554 32.7954 29.0071L34.1416 27.8695L33.5639 29.2447L36.5888 30.8197L38.4661 28.4646L37.3624 27.4426C37.3624 27.4426 39.0953 28.2291 39.2397 28.1891C39.3842 28.1492 38.9999 26.2251 38.1799 25.0475C37.3598 23.87 35.0493 23.155 34.2782 23.3653C33.5072 23.5756 32.2642 24.5765 32.4086 25.1653Z" fill="#92E3A9" stroke="#263238" stroke-linecap="round" stroke-linejoin="round"/>
<path d="M34.0117 26.4628C34.0117 26.4628 35.559 30.1931 36.2294 30.0754C36.8999 29.9576 37.2403 25.9518 37.2403 25.9518C36.7735 26.2122 36.2462 26.3919 35.6909 26.4798C35.1356 26.5677 34.5641 26.5619 34.0117 26.4628Z" fill="white"/>
<mask id="mask4_132_22508" style="mask-type:luminance" maskUnits="userSpaceOnUse" x="34" y="25" width="4" height="6">
<path d="M34.0117 26.4628C34.0117 26.4628 35.559 30.1931 36.2294 30.0754C36.8999 29.9576 37.2403 25.9518 37.2403 25.9518C36.7735 26.2122 36.2462 26.3919 35.6909 26.4798C35.1356 26.5677 34.5641 26.5619 34.0117 26.4628Z" fill="white"/>
</mask>
<g mask="url(#mask4_132_22508)">
<path d="M34.0117 26.4628C34.0117 26.4628 35.559 30.1931 36.2294 30.0754C36.8999 29.9576 37.2403 25.9518 37.2403 25.9518C36.7735 26.2122 36.2462 26.3919 35.6909 26.4798C35.1356 26.5677 34.5641 26.5619 34.0117 26.4628Z" fill="#92E3A9"/>
<path opacity="0.53" d="M34.0117 26.4628C34.0117 26.4628 35.559 30.1931 36.2294 30.0754C36.8999 29.9576 37.2403 25.9518 37.2403 25.9518C36.7735 26.2122 36.2462 26.3919 35.6909 26.4798C35.1356 26.5677 34.5641 26.5619 34.0117 26.4628Z" fill="white"/>
</g>
<path d="M34.0117 26.4628C34.0117 26.4628 35.559 30.1931 36.2294 30.0754C36.8999 29.9576 37.2403 25.9518 37.2403 25.9518C36.7735 26.2122 36.2462 26.3919 35.6909 26.4798C35.1356 26.5677 34.5641 26.5619 34.0117 26.4628Z" stroke="#263238" stroke-linecap="round" stroke-linejoin="round"/>
<path d="M30.0501 22.888C30.0501 22.888 31.7676 25.4114 33.0853 26.2651C34.3128 27.0621 36.2159 27.4048 37.1288 26.5006C38.0417 25.5964 38.2866 23.5567 38.2376 22.2593C38.1887 20.9618 37.0334 20.0997 35.7337 19.0399C34.434 17.9801 32.4587 16.6049 31.159 17.3114C29.8593 18.0179 29.6272 22.0637 30.0501 22.888Z" fill="white"/>
<mask id="mask5_132_22508" style="mask-type:luminance" maskUnits="userSpaceOnUse" x="29" y="17" width="10" height="11">
<path d="M30.0501 22.888C30.0501 22.888 31.7676 25.4114 33.0853 26.2651C34.3128 27.0621 36.2159 27.4048 37.1288 26.5006C38.0417 25.5964 38.2866 23.5567 38.2376 22.2593C38.1887 20.9618 37.0334 20.0997 35.7337 19.0399C34.434 17.9801 32.4587 16.6049 31.159 17.3114C29.8593 18.0179 29.6272 22.0637 30.0501 22.888Z" fill="white"/>
</mask>
<g mask="url(#mask5_132_22508)">
<path d="M37.1285 26.511C37.1594 26.4815 37.1878 26.4479 37.2162 26.4163C36.7234 26.5812 36.2006 26.6785 35.6689 26.7044C33.9463 26.7654 32.8323 25.4827 32.8323 25.4827C32.8323 25.4827 32.6827 25.2998 31.7853 23.9561C30.8879 22.6124 31.1741 18.8757 31.1741 18.8757C31.1741 18.8757 31.8472 19.6096 33.7194 19.9755C34.8019 20.1893 35.9042 20.33 37.015 20.396L36.9454 20.0449C36.5818 19.7147 36.1718 19.3846 35.7385 19.0334C34.4492 17.982 32.4635 16.5984 31.1638 17.3049C29.8641 18.0115 29.6166 22.0572 30.055 22.8815C30.055 22.8815 31.7724 25.4049 33.0902 26.2586C34.3125 27.0619 36.2156 27.4047 37.1285 26.511Z" fill="#92E3A9"/>
<path opacity="0.53" d="M37.1285 26.511C37.1594 26.4815 37.1878 26.4479 37.2162 26.4163C36.7234 26.5812 36.2006 26.6785 35.6689 26.7044C33.9463 26.7654 32.8323 25.4827 32.8323 25.4827C32.8323 25.4827 32.6827 25.2998 31.7853 23.9561C30.8879 22.6124 31.1741 18.8757 31.1741 18.8757C31.1741 18.8757 31.8472 19.6096 33.7194 19.9755C34.8019 20.1893 35.9042 20.33 37.015 20.396L36.9454 20.0449C36.5818 19.7147 36.1718 19.3846 35.7385 19.0334C34.4492 17.982 32.4635 16.5984 31.1638 17.3049C29.8641 18.0115 29.6166 22.0572 30.055 22.8815C30.055 22.8815 31.7724 25.4049 33.0902 26.2586C34.3125 27.0619 36.2156 27.4047 37.1285 26.511Z" fill="white"/>
<path d="M31.9268 22.6125C31.9268 22.6125 33.0356 22.848 33.474 22.2992" stroke="#263238" stroke-linecap="round" stroke-linejoin="round"/>
<path d="M35.6846 21.906C35.6846 21.906 36.7444 22.1415 37.1777 21.4855" stroke="#263238" stroke-linecap="round" stroke-linejoin="round"/>
<path d="M31.1582 21.8282C31.4277 21.6288 31.7522 21.4854 32.1041 21.41C32.456 21.3346 32.8251 21.3294 33.1799 21.395" stroke="#263238" stroke-linecap="round" stroke-linejoin="round"/>
<path d="M35.251 21.1596C35.251 21.1596 35.6842 20.493 37.0819 20.6107" stroke="#263238" stroke-linecap="round" stroke-linejoin="round"/>
<path d="M34.5781 23.91C34.5781 23.91 35.3002 24.1455 35.589 23.6345" stroke="#263238" stroke-linecap="round" stroke-linejoin="round"/>
<path d="M34.5273 24.89C34.5273 24.89 35.778 25.0098 36.3093 24.4189" stroke="#263238" stroke-linecap="round" stroke-linejoin="round"/>
</g>
<path d="M30.0501 22.888C30.0501 22.888 31.7676 25.4114 33.0853 26.2651C34.3128 27.0621 36.2159 27.4048 37.1288 26.5006C38.0417 25.5964 38.2866 23.5567 38.2376 22.2593C38.1887 20.9618 37.0334 20.0997 35.7337 19.0399C34.434 17.9801 32.4587 16.6049 31.159 17.3114C29.8593 18.0179 29.6272 22.0637 30.0501 22.888Z" stroke="#263238" stroke-linecap="round" stroke-linejoin="round"/>
<path d="M31.3028 40.8354C31.2772 40.3623 31.3091 39.8882 31.3982 39.4202C31.5426 38.7894 31.8314 38.5181 31.8314 37.8116C31.8314 37.1051 31.8804 36.8296 32.458 36.8296C33.0357 36.8296 34.142 36.8695 34.191 37.1829C34.24 37.4962 34.2864 37.6938 34.0466 37.6539C33.8067 37.6139 32.7959 37.5761 32.7959 37.5761L32.6514 37.8894C33.1256 38.0135 33.5913 38.1581 34.0466 38.3226C34.2864 38.4403 34.3354 39.3025 34.3354 39.7756C34.3595 39.986 34.2963 40.1969 34.1561 40.3745C34.0158 40.5522 33.8066 40.6863 33.5617 40.7555C33.0331 40.9132 32.5509 40.3644 32.5509 40.3644C32.5509 40.3644 32.6489 40.9532 32.1176 41.1487C31.5864 41.3443 31.1583 41.0709 31.3028 40.8354Z" fill="white" stroke="#263238" stroke-linecap="round" stroke-linejoin="round"/>
<path d="M33.4951 35.7844L32.6441 41.7963C32.6328 41.8764 32.643 41.9576 32.6739 42.0341C32.7048 42.1107 32.7557 42.1809 32.8232 42.2399C32.8906 42.2989 32.9729 42.3452 33.0644 42.3757C33.1559 42.4063 33.2545 42.4202 33.3533 42.4166L39.8595 42.1874C40.0033 42.1822 40.1415 42.1402 40.2544 42.0674C40.3674 41.9945 40.4493 41.8945 40.4887 41.7816L42.513 35.8938C42.5419 35.8102 42.5465 35.7223 42.5264 35.6371C42.5063 35.5518 42.4621 35.4716 42.3972 35.4027C42.3323 35.3339 42.2486 35.2784 42.1528 35.2406C42.0569 35.2028 41.9516 35.1838 41.8451 35.1851L34.163 35.284C33.9957 35.2859 33.8351 35.338 33.712 35.4303C33.5888 35.5226 33.5116 35.6487 33.4951 35.7844Z" fill="white" stroke="#263238" stroke-linecap="round" stroke-linejoin="round"/>
<path opacity="0.17" d="M33.8257 36.0263L33.0521 41.5545C33.0415 41.6283 33.0508 41.7031 33.0791 41.7736C33.1075 41.8442 33.1543 41.9089 33.2163 41.9633C33.2784 42.0177 33.3542 42.0605 33.4384 42.0886C33.5227 42.1168 33.6135 42.1297 33.7045 42.1265L39.6872 41.9162C39.8196 41.9113 39.9466 41.8725 40.0504 41.8053C40.1541 41.7381 40.2291 41.6459 40.2649 41.5419L42.1293 36.1335C42.1558 36.0565 42.1599 35.9756 42.1413 35.8971C42.1226 35.8186 42.0817 35.7447 42.0219 35.6814C41.962 35.618 41.8848 35.567 41.7964 35.5323C41.7081 35.4977 41.611 35.4803 41.513 35.4816L34.4498 35.5721C34.2956 35.5723 34.1468 35.6186 34.0318 35.7024C33.9167 35.7861 33.8434 35.9014 33.8257 36.0263Z" fill="black"/>
<path d="M33.6319 37.3932L33.0439 41.5546" stroke="#263238" stroke-width="0.75" stroke-linecap="round" stroke-linejoin="round"/>
<path d="M34.8536 35.5658H34.441C34.2881 35.5675 34.1412 35.6146 34.0278 35.6982C33.9144 35.7818 33.8422 35.8962 33.8246 36.02L33.7344 36.6614" stroke="#263238" stroke-width="0.75" stroke-linecap="round" stroke-linejoin="round"/>
<path d="M43.5334 39.3824C43.5334 39.3824 42.7598 38.4403 42.1847 38.4403C41.6096 38.4403 39.0077 39.6557 38.332 40.0111C37.6564 40.3665 38.381 40.52 38.381 40.52C38.3424 40.601 38.3356 40.6898 38.3615 40.7742C38.3873 40.8585 38.4446 40.9343 38.5254 40.991C38.659 41.1213 38.8476 41.2061 39.0541 41.2286C39.1472 41.3488 39.2817 41.4439 39.4409 41.502C39.7191 41.582 40.0123 41.6218 40.3074 41.6197C40.3074 41.6197 40.5472 41.7774 41.3672 41.7774C42.1873 41.7774 42.9557 41.7375 43.4302 41.2665C43.9047 40.7954 43.8712 40.3244 43.5334 39.3824Z" fill="white" stroke="#263238" stroke-linecap="round" stroke-linejoin="round"/>
<path d="M38.3945 40.52C38.3945 40.52 41.489 40.0889 42.0538 39.6179" stroke="#263238" stroke-linecap="round" stroke-linejoin="round"/>
<path d="M39.0557 41.2307C39.0557 41.2307 41.5596 40.9153 42.3307 40.562" stroke="#263238" stroke-linecap="round" stroke-linejoin="round"/>
<path d="M40.3086 41.6197C40.3086 41.6197 41.8558 41.5419 42.5237 41.3064" stroke="#263238" stroke-linecap="round" stroke-linejoin="round"/>
<path d="M26.5332 43.4996C26.5332 43.4996 36.5259 42.3956 40.5874 42.7636" stroke="white" stroke-miterlimit="10"/>
<path d="M39.7549 54.8022C39.7549 54.8022 42.527 53.8559 46.9754 54.8022C46.9754 54.8022 46.5241 55.3804 43.6875 55.8536C40.8509 56.3267 39.7549 54.8022 39.7549 54.8022Z" fill="white" stroke="#263238" stroke-linecap="round" stroke-linejoin="round"/>
<path d="M39.9752 42.7615C39.8031 42.8453 39.6218 42.9157 39.4336 42.9718C38.972 43.1085 38.0102 43.5332 37.6285 44.7529C37.1128 46.3825 39.6915 50.7984 40.0139 52.7435C40.1396 53.6461 40.3333 54.5414 40.5941 55.4246C40.5941 55.4246 41.5611 55.6349 43.1728 55.8451C44.7845 56.0554 45.3648 55.372 45.3648 55.372C45.3648 55.372 46.0739 50.5356 45.0424 47.5916C44.0109 44.6477 43.8175 43.2809 42.4637 42.8604C41.5121 42.5744 40.4032 42.5575 39.9752 42.7615Z" fill="white"/>
<mask id="mask6_132_22508" style="mask-type:luminance" maskUnits="userSpaceOnUse" x="37" y="42" width="9" height="14">
<path d="M39.9742 42.7615C39.8021 42.8453 39.6208 42.9157 39.4327 42.9718C38.9711 43.1085 38.0092 43.5332 37.6275 44.7529C37.1118 46.3825 39.6905 50.7984 40.0129 52.7435C40.1386 53.6461 40.3324 54.5414 40.5931 55.4246C40.5931 55.4246 41.5601 55.6349 43.1718 55.8451C44.7836 56.0554 45.3638 55.372 45.3638 55.372C45.3638 55.372 46.0729 50.5356 45.0414 47.5916C44.0099 44.6477 43.8165 43.2809 42.4627 42.8604C41.5111 42.5744 40.4023 42.5575 39.9742 42.7615Z" fill="white"/>
</mask>
<g mask="url(#mask6_132_22508)">
<path d="M45.024 55.9501C45.024 55.9501 45.3231 51.1852 43.6753 47.2172C42.0274 43.2492 40.604 43.3691 39.4049 44.1619C38.2057 44.9546 38.1335 46.7273 38.8066 48.4999C39.4796 50.2726 40.6117 52.224 40.7535 53.8726C40.8954 55.5212 40.6788 56.6209 41.504 56.6819C42.3292 56.7429 44.9492 57.1698 45.024 55.9501Z" fill="#92E3A9"/>
<path opacity="0.53" d="M45.024 55.9501C45.024 55.9501 45.3231 51.1852 43.6753 47.2172C42.0274 43.2492 40.604 43.3691 39.4049 44.1619C38.2057 44.9546 38.1335 46.7273 38.8066 48.4999C39.4796 50.2726 40.6117 52.224 40.7535 53.8726C40.8954 55.5212 40.6788 56.6209 41.504 56.6819C42.3292 56.7429 44.9492 57.1698 45.024 55.9501Z" fill="white"/>
</g>
<path d="M39.9752 42.7615C39.8031 42.8453 39.6218 42.9157 39.4336 42.9718C38.972 43.1085 38.0102 43.5332 37.6285 44.7529C37.1128 46.3825 39.6915 50.7984 40.0139 52.7435C40.1396 53.6461 40.3334 54.5414 40.5941 55.4246C40.5941 55.4246 41.5611 55.6349 43.1728 55.8451C44.7845 56.0554 45.3648 55.372 45.3648 55.372C45.3648 55.372 46.0739 50.5356 45.0424 47.5916C44.0109 44.6477 43.8175 43.2809 42.4637 42.8604C41.5121 42.5744 40.4032 42.5575 39.9752 42.7615Z" stroke="#263238" stroke-linecap="round" stroke-linejoin="round"/>
<path d="M39.7532 54.8022C39.7532 54.8022 44.2015 55.6959 46.9737 54.8022C46.9737 54.8022 45.362 60.9004 44.2015 63.5814C43.0411 66.2625 43.1056 67.5242 42.9122 68.9961C42.7187 70.4681 41.6228 73.044 40.2045 73.4646C38.7861 73.8851 38.6572 71.8875 39.6242 69.9424C40.5913 67.9973 40.9781 65.6317 40.5913 62.7929C40.2045 59.9541 39.7532 54.8022 39.7532 54.8022Z" fill="#92E3A9"/>
<mask id="mask7_132_22508" style="mask-type:luminance" maskUnits="userSpaceOnUse" x="39" y="54" width="8" height="20">
<path d="M39.7561 54.8021C39.7561 54.8021 44.2045 55.6958 46.9766 54.8021C46.9766 54.8021 45.3649 60.9002 44.2045 63.5813C43.044 66.2624 43.1085 67.5241 42.9151 68.996C42.7217 70.468 41.6257 73.0439 40.2074 73.4645C38.7891 73.885 38.6601 71.8874 39.6272 69.9423C40.5942 67.9972 40.981 65.6315 40.5942 62.7928C40.2074 59.954 39.7561 54.8021 39.7561 54.8021Z" fill="white"/>
</mask>
<g mask="url(#mask7_132_22508)">
<path opacity="0.17" d="M45.5491 57.1699C45.8447 56.4651 46.0588 55.7393 46.1886 55.002C44.4248 55.3489 42.2767 55.1681 40.9615 55.002C41.1059 56.6716 41.4618 61.2809 41.2787 64.3846C41.0724 67.9489 40.028 69.3641 39.2157 70.9622C38.9912 71.5867 38.9436 72.2446 39.0764 72.8863C39.4839 73.1743 40.2652 73.0461 41.0492 72.5078C42.4726 71.53 42.7718 68.0477 42.9213 66.1552C43.0709 64.2627 44.8735 58.7576 45.5491 57.1699Z" fill="black"/>
</g>
<path d="M39.7532 54.8022C39.7532 54.8022 44.2015 55.6959 46.9737 54.8022C46.9737 54.8022 45.362 60.9004 44.2015 63.5814C43.0411 66.2625 43.1056 67.5242 42.9122 68.9961C42.7187 70.4681 41.6228 73.044 40.2045 73.4646C38.7861 73.8851 38.6572 71.8875 39.6242 69.9424C40.5913 67.9973 40.9781 65.6317 40.5913 62.7929C40.2045 59.9541 39.7532 54.8022 39.7532 54.8022Z" stroke="#263238" stroke-linecap="round" stroke-linejoin="round"/>
<path d="M44.332 62.4774L44.2676 67.419L44.7833 67.2087L44.332 62.4774Z" fill="#92E3A9" stroke="#263238" stroke-linecap="round" stroke-linejoin="round"/>
<path d="M44.46 61.9517L44.9757 66.7355L45.427 66.4727L44.46 61.9517Z" fill="#92E3A9" stroke="#263238" stroke-linecap="round" stroke-linejoin="round"/>
<path d="M37.8796 55.1092C37.8796 55.1092 35.7521 54.2155 31.0459 54.8464C31.7184 55.609 32.7037 56.1498 33.8232 56.3709C35.6928 56.7473 37.8796 55.1092 37.8796 55.1092Z" fill="white" stroke="#263238" stroke-linecap="round" stroke-linejoin="round"/>
<path d="M36.5894 43.1233C36.5894 43.1233 34.2686 42.3347 32.5924 43.5964C30.9162 44.8581 31.4319 47.5917 31.5609 48.1174C31.6898 48.6431 31.8188 49.2214 31.8188 49.2214L32.1411 55.8978L36.6539 55.9503C36.6539 55.9503 37.492 50.6408 38.1367 48.3277C38.7814 46.0146 38.7865 44.2356 36.5894 43.1233Z" fill="white"/>
<mask id="mask8_132_22508" style="mask-type:luminance" maskUnits="userSpaceOnUse" x="31" y="42" width="8" height="14">
<path d="M36.5914 43.1233C36.5914 43.1233 34.2705 42.3347 32.5943 43.5964C30.9181 44.8581 31.4339 47.5917 31.5628 48.1174C31.6918 48.6431 31.8207 49.2214 31.8207 49.2214L32.143 55.8978L36.6559 55.9503C36.6559 55.9503 37.494 50.6408 38.1386 48.3277C38.7833 46.0146 38.7885 44.2356 36.5914 43.1233Z" fill="white"/>
</mask>
<g mask="url(#mask8_132_22508)">
<path d="M36.1861 44.5952C33.5661 43.8613 32.9678 45.8169 32.7409 47.5265C32.5139 49.236 32.5165 55.4035 32.5913 55.7715C32.612 55.8262 32.6472 55.8764 32.6944 55.9187L36.6606 55.965C36.6606 55.965 37.4987 50.6554 38.1433 48.3423C38.1872 48.1804 38.2284 48.0206 38.2671 47.865C38.2826 46.8641 38.035 45.104 36.1861 44.5952Z" fill="#92E3A9"/>
<path opacity="0.53" d="M36.1861 44.5952C33.5661 43.8613 32.9678 45.8169 32.7409 47.5265C32.5139 49.236 32.5165 55.4035 32.5913 55.7715C32.612 55.8262 32.6472 55.8764 32.6944 55.9187L36.6606 55.965C36.6606 55.965 37.4987 50.6554 38.1433 48.3423C38.1872 48.1804 38.2284 48.0206 38.2671 47.865C38.2826 46.8641 38.035 45.104 36.1861 44.5952Z" fill="white"/>
</g>
<path d="M36.5894 43.1233C36.5894 43.1233 34.2686 42.3347 32.5924 43.5964C30.9162 44.8581 31.4319 47.5917 31.5609 48.1174C31.6898 48.6431 31.8188 49.2214 31.8188 49.2214L32.1411 55.8978L36.6539 55.9503C36.6539 55.9503 37.492 50.6408 38.1367 48.3277C38.7814 46.0146 38.7865 44.2356 36.5894 43.1233Z" stroke="#263238" stroke-linecap="round" stroke-linejoin="round"/>
<path d="M31.0498 54.8547C31.0498 54.8547 31.8879 59.9015 32.726 62.2145C33.5641 64.5276 34.4022 67.2612 34.4022 69.9949C34.4022 72.7285 37.1099 73.8851 37.819 73.3594C38.5282 72.8337 37.948 70.2052 37.3678 68.8383C36.7875 67.4715 36.0139 64.0545 36.2718 62.2671C36.5297 60.4797 37.8783 55.1092 37.8783 55.1092C37.8783 55.1092 33.3707 55.3195 31.0498 54.8547Z" fill="#92E3A9"/>
<mask id="mask9_132_22508" style="mask-type:luminance" maskUnits="userSpaceOnUse" x="31" y="54" width="8" height="20">
<path d="M31.0518 54.8547C31.0518 54.8547 31.8899 59.9015 32.7279 62.2145C33.566 64.5276 34.4041 67.2612 34.4041 69.9949C34.4041 72.7285 37.1118 73.8851 37.821 73.3594C38.5301 72.8337 37.9499 70.2052 37.3697 68.8383C36.7895 67.4715 36.0159 64.0545 36.2737 62.2671C36.5316 60.4797 37.8803 55.1092 37.8803 55.1092C37.8803 55.1092 33.3726 55.3195 31.0518 54.8547Z" fill="white"/>
</mask>
<g mask="url(#mask9_132_22508)">
<path opacity="0.17" d="M35.5864 61.016C35.8855 56.4971 37.309 55.1534 37.309 55.1534L37.1826 55.1408C35.5863 55.1947 33.9874 55.1617 32.3965 55.042C32.4971 56.2133 32.8658 59.931 33.6859 63.0558C34.6813 66.8198 34.5291 68.9562 35.2795 70.6658C36.0299 72.3754 37.6004 73.6602 37.6004 72.2534C37.6004 70.8466 35.3002 65.5371 35.5864 61.016Z" fill="black"/>
</g>
<path d="M31.0498 54.8547C31.0498 54.8547 31.8879 59.9015 32.726 62.2145C33.5641 64.5276 34.4022 67.2612 34.4022 69.9949C34.4022 72.7285 37.1099 73.8851 37.819 73.3594C38.5282 72.8337 37.948 70.2052 37.3678 68.8383C36.7875 67.4715 36.0139 64.0545 36.2718 62.2671C36.5297 60.4797 37.8783 55.1092 37.8783 55.1092C37.8783 55.1092 33.3707 55.3195 31.0498 54.8547Z" stroke="#263238" stroke-linecap="round" stroke-linejoin="round"/>
<path d="M32.5345 61.2683L32.2754 66.4727L32.5993 66.5779L32.5345 61.2683Z" fill="#92E3A9" stroke="#263238" stroke-linecap="round" stroke-linejoin="round"/>
<path d="M32.7266 61.4785L32.9844 66.6829L33.5002 66.315L32.7266 61.4785Z" fill="#92E3A9" stroke="#263238" stroke-linecap="round" stroke-linejoin="round"/>
<path d="M31.4481 17.9002C31.4481 17.9002 30.1458 21.395 31.0613 24.381C31.9767 27.367 31.5435 30.702 31.4481 32.5483C31.3527 34.3945 30.5326 35.9254 28.7017 37.105C26.8708 38.2847 24.4158 38.0849 22.5849 37.0651C20.754 36.0452 20.1789 33.137 21.1898 31.0952C22.2007 29.0534 24.7047 25.4808 25.4267 23.6345C26.1488 21.7882 25.7155 20.8462 25.9089 19.1177C26.1023 17.3892 27.353 14.2476 29.955 13.5411C32.557 12.8345 35.5896 12.8745 37.6603 15.1518C39.731 17.4291 39.9245 20.924 40.1153 22.0637C40.3061 23.2034 40.8889 23.5945 42.0416 23.7922C43.1943 23.9899 43.0061 24.6544 42.1396 24.7343C41.2731 24.8142 39.0193 24.3284 38.3953 23.6597C37.7712 22.991 38.2869 21.9459 37.2271 20.9261C36.1672 19.9062 32.508 19.5109 31.4481 17.9002Z" fill="#263238" stroke="#263238" stroke-linecap="round" stroke-linejoin="round"/>
<path d="M30.4633 31.5137C30.4994 33.0004 30.3731 34.2725 29.9476 34.9833C28.6943 37.105 26.8531 37.0861 24.6611 36.7707" stroke="white" stroke-linecap="round" stroke-linejoin="round"/>
<path d="M31.4476 17.9001C31.4476 17.9001 29.0519 20.0534 29.4387 22.8922C29.6528 24.4672 30.1737 27.3669 30.38 29.9975" stroke="white" stroke-linecap="round" stroke-linejoin="round"/>
<path d="M23.5297 32.2706C22.8798 32.748 22.4775 32.4599 22.4775 32.4599" stroke="white" stroke-linecap="round" stroke-linejoin="round"/>
<path d="M25.8284 22.7871C25.8284 22.7871 26.3442 27.5184 24.9258 30.3572C24.7175 30.7891 24.4657 31.2062 24.1729 31.6041" stroke="white" stroke-linecap="round" stroke-linejoin="round"/>
<path d="M37.8644 17.2903C37.0032 16.5602 35.8371 16.1204 34.5971 16.0581C31.2448 15.8478 31.1597 17.3197 31.1597 17.3197C31.1597 17.3197 29.8264 14.9099 34.5971 14.7964" stroke="white" stroke-linecap="round" stroke-linejoin="round"/>
<path d="M38.9794 18.6866C38.8695 18.4568 38.7321 18.2363 38.5693 18.0284" stroke="white" stroke-linecap="round" stroke-linejoin="round"/>
</svg>
