<svg width="12" height="12" viewBox="0 0 12 12" fill="none" xmlns="http://www.w3.org/2000/svg">
<path d="M6 1.2054C4.3428 1.2054 3 2.5428 3 4.1994C3 7.0638 6 10.7994 6 10.7994C6 10.7994 9 7.0632 9 4.1994C9 2.5434 7.6572 1.2054 6 1.2054ZM6 5.856C5.57035 5.856 5.1583 5.68532 4.85449 5.38151C4.55068 5.0777 4.38 4.66565 4.38 4.236C4.38 3.80635 4.55068 3.39429 4.85449 3.09049C5.1583 2.78668 5.57035 2.616 6 2.616C6.42965 2.616 6.8417 2.78668 7.14551 3.09049C7.44932 3.39429 7.62 3.80635 7.62 4.236C7.62 4.66565 7.44932 5.0777 7.14551 5.38151C6.8417 5.68532 6.42965 5.856 6 5.856Z" fill="#989898"/>
</svg>
