<svg width="50" height="50" viewBox="0 0 50 50" fill="none" xmlns="http://www.w3.org/2000/svg">
<rect width="50" height="50" rx="25" fill="#ECECE0"/>
<path d="M30 31C30.5304 31 31.0391 31.2107 31.4142 31.5858C31.7893 31.9609 32 32.4696 32 33C32 33.5304 31.7893 34.0391 31.4142 34.4142C31.0391 34.7893 30.5304 35 30 35C29.4696 35 28.9609 34.7893 28.5858 34.4142C28.2107 34.0391 28 33.5304 28 33C28 31.89 28.89 31 30 31ZM14 15H17.27L18.21 17H33C33.2652 17 33.5196 17.1054 33.7071 17.2929C33.8946 17.4804 34 17.7348 34 18C34 18.17 33.95 18.34 33.88 18.5L30.3 24.97C29.96 25.58 29.3 26 28.55 26H21.1L20.2 27.63L20.17 27.75C20.17 27.8163 20.1963 27.8799 20.2432 27.9268C20.2901 27.9737 20.3537 28 20.42 28H32V30H20C19.4696 30 18.9609 29.7893 18.5858 29.4142C18.2107 29.0391 18 28.5304 18 28C18 27.65 18.09 27.32 18.24 27.04L19.6 24.59L16 17H14V15ZM20 31C20.5304 31 21.0391 31.2107 21.4142 31.5858C21.7893 31.9609 22 32.4696 22 33C22 33.5304 21.7893 34.0391 21.4142 34.4142C21.0391 34.7893 20.5304 35 20 35C19.4696 35 18.9609 34.7893 18.5858 34.4142C18.2107 34.0391 18 33.5304 18 33C18 31.89 18.89 31 20 31ZM29 24L31.78 19H19.14L21.5 24H29Z" fill="#8B9467"/>
</svg>
