<svg width="91" height="90" viewBox="0 0 91 90" fill="none" xmlns="http://www.w3.org/2000/svg">
<rect x="0.5" y="0.5" width="90" height="89" rx="19.5" fill="#FDF6D2" stroke="#D2D2D2"/>
<rect x="21.8881" y="21.8881" width="43.2238" height="43.2238" stroke="#D2D2D2" stroke-width="1.77622"/>
<path d="M30.3751 39.7106C30.3751 41.8031 33.7313 43.5 37.8751 43.5V39.7106C37.8751 37.8469 37.8751 36.9131 37.1307 36.345C36.3844 35.7769 35.6457 35.9887 34.1682 36.4144C31.9032 37.0687 30.3751 38.2969 30.3751 39.7106Z" stroke="#E1C109" stroke-width="2.66432" stroke-linecap="round" stroke-linejoin="round"/>
<path d="M51.0001 36.9376C51.0001 40.5619 45.1238 43.5001 37.8751 43.5001C30.6263 43.5001 24.7501 40.5619 24.7501 36.9376C24.7501 33.3132 30.6263 30.3751 37.8751 30.3751C45.1238 30.3751 51.0001 33.3132 51.0001 36.9376Z" stroke="#E1C109" stroke-width="2.66432" stroke-linecap="round" stroke-linejoin="round"/>
<path d="M24.7501 37.8751V50.3757C24.7501 53.8257 30.6263 56.6251 37.8751 56.6251H58.5001C60.2682 56.6251 61.1513 56.6251 61.7007 56.0757C62.2501 55.5263 62.2501 54.6432 62.2501 52.8751V47.2501C62.2501 45.4819 62.2501 44.5988 61.7007 44.0494C61.1513 43.5001 60.2682 43.5001 58.5001 43.5001H37.8751M54.7501 56.6251V52.8751M47.2501 56.6251V52.8751M39.7501 56.6251V52.8751M32.2501 55.6876V51.9376" stroke="#E1C109" stroke-width="2.66432" stroke-linecap="round" stroke-linejoin="round"/>
</svg>
