<svg width="91" height="90" viewBox="0 0 91 90" fill="none" xmlns="http://www.w3.org/2000/svg">
<path d="M0.5 20C0.5 9.23045 9.23045 0.5 20 0.5H71C81.7695 0.5 90.5 9.23045 90.5 20V70C90.5 80.7695 81.7695 89.5 71 89.5H20C9.23045 89.5 0.5 80.7695 0.5 70V20Z" fill="#EAF7E9" stroke="#D2D2D2"/>
<rect x="23.5" y="23.5" width="44" height="44" stroke="#D2D2D2"/>
<path d="M26.75 36.125V34.25C26.2527 34.25 25.7758 34.4475 25.4242 34.7992C25.0725 35.1508 24.875 35.6277 24.875 36.125H26.75ZM47.375 36.125H49.25C49.25 35.6277 49.0525 35.1508 48.7008 34.7992C48.3492 34.4475 47.8723 34.25 47.375 34.25V36.125ZM47.375 39.875V38C46.8777 38 46.4008 38.1975 46.0492 38.5492C45.6975 38.9008 45.5 39.3777 45.5 39.875H47.375ZM26.75 38H47.375V34.25H26.75V38ZM45.5 36.125V58.625H49.25V36.125H45.5ZM28.625 54.875V36.125H24.875V54.875H28.625ZM47.375 41.75H56.75V38H47.375V41.75ZM62.375 47.375V54.875H66.125V47.375H62.375ZM49.25 58.625V39.875H45.5V58.625H49.25ZM58.0756 59.9506C57.724 60.3021 57.2472 60.4996 56.75 60.4996C56.2528 60.4996 55.776 60.3021 55.4244 59.9506L52.7731 62.6019C53.828 63.6564 55.2585 64.2488 56.75 64.2488C58.2415 64.2488 59.672 63.6564 60.7269 62.6019L58.0756 59.9506ZM55.4244 57.2994C55.776 56.9479 56.2528 56.7504 56.75 56.7504C57.2472 56.7504 57.724 56.9479 58.0756 57.2994L60.7269 54.6481C59.672 53.5936 58.2415 53.0012 56.75 53.0012C55.2585 53.0012 53.828 53.5936 52.7731 54.6481L55.4244 57.2994ZM35.5756 59.9506C35.224 60.3021 34.7472 60.4996 34.25 60.4996C33.7528 60.4996 33.276 60.3021 32.9244 59.9506L30.2731 62.6019C31.328 63.6564 32.7585 64.2488 34.25 64.2488C35.7415 64.2488 37.172 63.6564 38.2269 62.6019L35.5756 59.9506ZM32.9244 57.2994C33.276 56.9479 33.7528 56.7504 34.25 56.7504C34.7472 56.7504 35.224 56.9479 35.5756 57.2994L38.2269 54.6481C37.172 53.5936 35.7415 53.0012 34.25 53.0012C32.7585 53.0012 31.328 53.5936 30.2731 54.6481L32.9244 57.2994ZM58.0756 57.2994C58.4431 57.665 58.625 58.1431 58.625 58.625H62.375C62.375 57.1887 61.8256 55.745 60.7269 54.6481L58.0756 57.2994ZM58.625 58.625C58.6256 58.8713 58.5773 59.1153 58.483 59.3428C58.3887 59.5703 58.2502 59.7769 58.0756 59.9506L60.7269 62.6019C61.2497 62.08 61.6645 61.4601 61.9473 60.7777C62.2301 60.0953 62.3755 59.3637 62.375 58.625H58.625ZM53 56.75H47.375V60.5H53V56.75ZM55.4244 59.9506C55.2498 59.7769 55.1113 59.5703 55.017 59.3428C54.9227 59.1153 54.8744 58.8713 54.875 58.625H51.125C51.125 60.0613 51.6744 61.505 52.7731 62.6019L55.4244 59.9506ZM54.875 58.625C54.874 58.3786 54.9221 58.1345 55.0164 57.907C55.1107 57.6794 55.2494 57.4728 55.4244 57.2994L52.7731 54.6481C52.2503 55.17 51.8355 55.7899 51.5527 56.4723C51.2699 57.1547 51.1245 57.8863 51.125 58.625H54.875ZM32.9244 59.9506C32.7498 59.7769 32.6113 59.5703 32.517 59.3428C32.4227 59.1153 32.3744 58.8713 32.375 58.625H28.625C28.625 60.0613 29.1744 61.505 30.2731 62.6019L32.9244 59.9506ZM32.375 58.625C32.374 58.3786 32.4221 58.1345 32.5164 57.907C32.6107 57.6794 32.7494 57.4728 32.9244 57.2994L30.2731 54.6481C29.7503 55.17 29.3355 55.7899 29.0527 56.4723C28.7699 57.1547 28.6245 57.8863 28.625 58.625H32.375ZM47.375 56.75H38V60.5H47.375V56.75ZM35.5756 57.2994C35.9431 57.665 36.125 58.1431 36.125 58.625H39.875C39.875 57.1887 39.3256 55.745 38.2269 54.6481L35.5756 57.2994ZM36.125 58.625C36.1256 58.8713 36.0773 59.1153 35.983 59.3428C35.8887 59.5703 35.7502 59.7769 35.5756 59.9506L38.2269 62.6019C38.7497 62.08 39.1645 61.4601 39.4473 60.7777C39.7301 60.0953 39.8755 59.3637 39.875 58.625H36.125ZM62.375 54.875C62.375 55.3723 62.1775 55.8492 61.8258 56.2008C61.4742 56.5525 60.9973 56.75 60.5 56.75V60.5C61.9918 60.5 63.4226 59.9074 64.4775 58.8525C65.5324 57.7976 66.125 56.3668 66.125 54.875H62.375ZM56.75 41.75C58.2418 41.75 59.6726 42.3426 60.7275 43.3975C61.7824 44.4524 62.375 45.8832 62.375 47.375H66.125C66.125 46.1439 65.8825 44.9248 65.4114 43.7873C64.9402 42.6499 64.2497 41.6164 63.3791 40.7459C62.5086 39.8753 61.4751 39.1848 60.3377 38.7136C59.2002 38.2425 57.9811 38 56.75 38V41.75ZM24.875 54.875C24.875 56.3668 25.4676 57.7976 26.5225 58.8525C27.5774 59.9074 29.0082 60.5 30.5 60.5V56.75C30.0027 56.75 29.5258 56.5525 29.1742 56.2008C28.8225 55.8492 28.625 55.3723 28.625 54.875H24.875Z" fill="#25BA66"/>
<path opacity="0.16" d="M47.375 36.125H26.75V54.875C26.75 55.8696 27.1451 56.8234 27.8483 57.5266C28.5516 58.2299 29.5054 58.625 30.5 58.625C30.5 57.6304 30.8951 56.6766 31.5983 55.9734C32.3016 55.2701 33.2554 54.875 34.25 54.875C35.2446 54.875 36.1984 55.2701 36.9017 55.9734C37.6049 56.6766 38 57.6304 38 58.625H47.375V36.125Z" fill="#25BA66"/>
<path d="M37.0625 34.25C37.0625 32.7582 36.4699 31.3274 35.415 30.2725C34.3601 29.2176 32.9293 28.625 31.4375 28.625C30.9402 28.625 30.4633 28.8225 30.1117 29.1742C29.76 29.5258 29.5625 30.0027 29.5625 30.5C29.5625 31.9918 30.1551 33.4226 31.21 34.4775C32.2649 35.5324 33.6957 36.125 35.1875 36.125H37.0625M37.0625 34.25V36.125M37.0625 34.25C37.0625 32.7582 37.6551 31.3274 38.71 30.2725C39.7649 29.2176 41.1957 28.625 42.6875 28.625C43.1848 28.625 43.6617 28.8225 44.0133 29.1742C44.365 29.5258 44.5625 30.0027 44.5625 30.5C44.5625 31.9918 43.9699 33.4226 42.915 34.4775C41.8601 35.5324 40.4293 36.125 38.9375 36.125H37.0625" stroke="#25BA66" stroke-width="2" stroke-linejoin="round"/>
</svg>
