<svg width="91" height="90" viewBox="0 0 91 90" fill="none" xmlns="http://www.w3.org/2000/svg">
<rect x="0.5" y="0.5" width="90" height="89" rx="19.5" fill="#EAECFB" stroke="#D2D2D2"/>
<rect x="23.5" y="23.5" width="44" height="44" stroke="#D2D2D2"/>
<path d="M59.8921 38.1172H31.1079C31.0947 38.1172 31.0859 38.126 31.0859 38.1392V42.147C31.0859 44.7749 33.2393 46.9062 35.8892 46.9062C37.6777 46.9062 39.2378 45.9395 40.0684 44.5024C40.1958 44.2783 40.4375 44.1377 40.6968 44.1377C40.9561 44.1377 41.1934 44.2783 41.3252 44.5024C42.1514 45.9395 43.7114 46.9062 45.5 46.9062C47.293 46.9062 48.8574 45.9351 49.6792 44.4937C49.8066 44.2739 50.0396 44.1377 50.29 44.1377H50.3164C50.5713 44.1377 50.7998 44.2739 50.9272 44.4937C51.7534 45.9351 53.3179 46.9062 55.1108 46.9062C57.7607 46.9062 59.9141 44.7749 59.9141 42.147V38.1392C59.9141 38.126 59.9053 38.1172 59.8921 38.1172Z" fill="#032A45" fill-opacity="0.15"/>
<path d="M61.7598 34.9575V29.3281C61.7598 28.5503 61.1314 27.9219 60.3535 27.9219H30.6465C29.8687 27.9219 29.2403 28.5503 29.2403 29.3281V34.9575C28.5064 35.0015 27.9219 35.6123 27.9219 36.3594V42.147C27.9191 43.2106 28.1345 44.2636 28.5547 45.2407C28.7437 45.689 28.9766 46.1108 29.2403 46.5107V61.6719C29.2403 62.4453 29.8687 63.0781 30.6465 63.0781H60.3535C61.1314 63.0781 61.7598 62.4497 61.7598 61.6719V46.5107C62.0276 46.1098 62.2571 45.6846 62.4453 45.2407C62.8628 44.2607 63.0782 43.2192 63.0782 42.147V36.3594C63.0782 35.6123 62.4937 35.0015 61.7598 34.9575ZM32.4043 31.0859H58.5957V34.9531H32.4043V31.0859ZM48.3125 59.9185H42.6875V55.3438H48.3125V59.9185ZM58.6133 59.9185H51.125V53.9375C51.125 53.1597 50.4966 52.5312 49.7188 52.5312H41.2813C40.5034 52.5312 39.875 53.1597 39.875 53.9375V59.9185H32.4043V49.2749C32.5318 49.3364 32.6636 49.398 32.7998 49.4507C33.7798 49.8638 34.8213 50.0703 35.8936 50.0703C36.9658 50.0703 38.003 49.8638 38.9873 49.4507C39.5938 49.1958 40.1651 48.8706 40.688 48.4795C40.6968 48.4751 40.7056 48.4751 40.7144 48.4795C41.239 48.8723 41.8102 49.1985 42.4151 49.4507C43.395 49.8638 44.4366 50.0703 45.5088 50.0703C46.5811 50.0703 47.6182 49.8638 48.6026 49.4507C49.209 49.1958 49.7803 48.8706 50.3032 48.4795C50.312 48.4751 50.3208 48.4751 50.3296 48.4795C50.8542 48.8723 51.4254 49.1985 52.0303 49.4507C53.0103 49.8638 54.0518 50.0703 55.1241 50.0703C56.1963 50.0703 57.2334 49.8638 58.2178 49.4507C58.3496 49.3936 58.4815 49.3364 58.6133 49.2749V59.9185ZM59.9141 42.147C59.9141 44.7749 57.7608 46.9062 55.1109 46.9062C53.3179 46.9062 51.7534 45.9351 50.9273 44.4937C50.7998 44.2739 50.5713 44.1377 50.3164 44.1377H50.2901C50.0396 44.1377 49.8067 44.2739 49.6792 44.4937C49.2576 45.2289 48.6488 45.8395 47.9148 46.2632C47.1808 46.687 46.3476 46.9088 45.5 46.9062C43.7115 46.9062 42.1514 45.9395 41.3252 44.5024C41.1934 44.2783 40.9561 44.1377 40.6968 44.1377C40.4375 44.1377 40.1958 44.2783 40.0684 44.5024C39.6443 45.2349 39.0348 45.8427 38.3011 46.2647C37.5674 46.6867 36.7356 46.908 35.8892 46.9062C33.2393 46.9062 31.086 44.7749 31.086 42.147V38.1392C31.086 38.126 31.0948 38.1172 31.1079 38.1172H59.8921C59.9053 38.1172 59.9141 38.126 59.9141 38.1392V42.147Z" fill="#5A70F3"/>
</svg>
