<svg width="48" height="48" viewBox="0 0 48 48" fill="none" xmlns="http://www.w3.org/2000/svg">
<g clip-path="url(#clip0_721_1702)">
<path d="M24.002 9.05802C28.7 4.84002 35.96 4.98002 40.486 9.51402C45.01 14.05 45.166 21.274 40.958 25.986L23.998 42.97L7.04201 25.986C2.83401 21.274 2.99201 14.038 7.51401 9.51402C12.044 4.98602 19.29 4.83402 24.002 9.05802ZM37.654 12.34C34.654 9.33602 29.814 9.21402 26.674 12.034L24.004 14.43L21.332 12.036C18.182 9.21202 13.352 9.33602 10.344 12.344C7.36401 15.324 7.21401 20.094 9.96001 23.246L24 37.308L38.04 23.248C40.788 20.094 40.638 15.33 37.654 12.34Z" fill="#245949"/>
</g>
<defs>
<clipPath id="clip0_721_1702">
<rect width="48" height="48" fill="white"/>
</clipPath>
</defs>
</svg>
