<svg width="20" height="20" viewBox="0 0 20 20" fill="none" xmlns="http://www.w3.org/2000/svg">
<path fill-rule="evenodd" clip-rule="evenodd" d="M11 11H9V10.852C9 9.976 9.306 9.353 10 9C10.385 8.805 11 8.432 11 8C10.9885 7.74252 10.8781 7.49941 10.6918 7.32128C10.5055 7.14315 10.2577 7.04373 10 7.04373C9.74226 7.04373 9.49446 7.14315 9.30818 7.32128C9.12191 7.49941 9.01152 7.74252 9 8H7C7 6.346 8.346 5 10 5C11.654 5 13 6 13 8C13 10 11 10.165 11 11ZM9 15H11V13H9V15ZM10 2C7.87827 2 5.84344 2.84285 4.34315 4.34315C2.84285 5.84344 2 7.87827 2 10C2 12.1217 2.84285 14.1566 4.34315 15.6569C5.84344 17.1571 7.87827 18 10 18C12.1217 18 14.1566 17.1571 15.6569 15.6569C17.1571 14.1566 18 12.1217 18 10C18 7.87827 17.1571 5.84344 15.6569 4.34315C14.1566 2.84285 12.1217 2 10 2Z" fill="#5C5F62"/>
</svg>
