<svg width="17" height="18" viewBox="0 0 17 18" fill="none" xmlns="http://www.w3.org/2000/svg">
<path d="M10.8807 13.235C12.4334 13.0512 13.959 12.6847 15.4257 12.1433C14.1836 10.7673 13.4972 8.97875 13.4999 7.125V6.54167V6.5C13.4999 5.17392 12.9731 3.90215 12.0354 2.96447C11.0978 2.02678 9.82599 1.5 8.49991 1.5C7.17383 1.5 5.90206 2.02678 4.96438 2.96447C4.02669 3.90215 3.49991 5.17392 3.49991 6.5V7.125C3.50242 8.97886 2.81573 10.7675 1.57324 12.1433C3.01741 12.6767 4.53991 13.0475 6.11908 13.235M10.8807 13.235C9.29906 13.4226 7.70075 13.4226 6.11908 13.235M10.8807 13.235C11.0008 13.6099 11.0307 14.0078 10.9679 14.3964C10.9051 14.785 10.7514 15.1533 10.5194 15.4713C10.2873 15.7893 9.9835 16.048 9.63257 16.2263C9.28164 16.4047 8.89356 16.4976 8.49991 16.4976C8.10626 16.4976 7.71818 16.4047 7.36725 16.2263C7.01632 16.048 6.71247 15.7893 6.48043 15.4713C6.24838 15.1533 6.09471 14.785 6.03192 14.3964C5.96913 14.0078 5.99899 13.6099 6.11908 13.235" stroke="#ECECE0" stroke-width="1.5" stroke-linecap="round" stroke-linejoin="round"/>
</svg>
