<svg width="48" height="48" viewBox="0 0 48 48" fill="none" xmlns="http://www.w3.org/2000/svg">
<g clip-path="url(#clip0_726_483)">
<path d="M18.732 21.364C20.6087 24.661 23.339 27.3913 26.636 29.268L28.404 26.792C28.6883 26.3939 29.1087 26.1138 29.5856 26.0047C30.0625 25.8956 30.5629 25.9651 30.992 26.2C33.8206 27.7458 36.9444 28.6756 40.158 28.928C40.6596 28.9677 41.1277 29.1951 41.4691 29.5646C41.8105 29.9342 42.0001 30.4189 42 30.922V39.846C42.0001 40.3412 41.8165 40.8188 41.4847 41.1864C41.153 41.554 40.6966 41.7855 40.204 41.836C39.144 41.946 38.076 42 37 42C19.88 42 6 28.12 6 11C6 9.924 6.054 8.856 6.164 7.796C6.21451 7.30339 6.44597 6.84704 6.81358 6.51527C7.18119 6.18349 7.65881 5.99989 8.154 6H17.078C17.5811 5.99994 18.0658 6.1895 18.4354 6.5309C18.8049 6.8723 19.0323 7.34045 19.072 7.842C19.3244 11.0556 20.2542 14.1794 21.8 17.008C22.0349 17.4371 22.1044 17.9375 21.9953 18.4144C21.8862 18.8913 21.6061 19.3117 21.208 19.596L18.732 21.364ZM13.688 20.05L17.488 17.336C16.4096 15.0082 15.6707 12.5377 15.294 10H10.02C10.008 10.332 10.002 10.666 10.002 11C10 25.912 22.088 38 37 38C37.334 38 37.668 37.994 38 37.98V32.706C35.4623 32.3293 32.9918 31.5904 30.664 30.512L27.95 34.312C26.8573 33.8874 25.796 33.3862 24.774 32.812L24.658 32.746C20.7352 30.5134 17.4866 27.2648 15.254 23.342L15.188 23.226C14.6138 22.204 14.1126 21.1427 13.688 20.05Z" fill="#245949"/>
</g>
<defs>
<clipPath id="clip0_726_483">
<rect width="48" height="48" fill="white"/>
</clipPath>
</defs>
</svg>
