<svg width="164" height="164" viewBox="0 0 164 164" fill="none" xmlns="http://www.w3.org/2000/svg">
<path d="M119.396 47.6465L126.604 54.8535L66.625 114.832L37.3965 85.6035L44.6035 78.3965L66.625 100.418L119.396 47.6465ZM82 0C89.5273 0 96.7878 0.960938 103.781 2.88281C110.775 4.80469 117.314 7.55404 123.4 11.1309C129.486 14.7077 135.012 18.9785 139.977 23.9434C144.941 28.9082 149.212 34.4603 152.789 40.5996C156.366 46.7389 159.115 53.2786 161.037 60.2188C162.959 67.1589 163.947 74.4193 164 82C164 89.5273 163.039 96.7878 161.117 103.781C159.195 110.775 156.446 117.314 152.869 123.4C149.292 129.486 145.021 135.012 140.057 139.977C135.092 144.941 129.54 149.212 123.4 152.789C117.261 156.366 110.721 159.115 103.781 161.037C96.8411 162.959 89.5807 163.947 82 164C74.4727 164 67.2122 163.039 60.2188 161.117C53.2253 159.195 46.6855 156.446 40.5996 152.869C34.5137 149.292 28.9883 145.021 24.0234 140.057C19.0586 135.092 14.7878 129.54 11.2109 123.4C7.63411 117.261 4.88477 110.748 2.96289 103.861C1.04102 96.9746 0.0533854 89.6875 0 82C0 74.4727 0.960938 67.2122 2.88281 60.2188C4.80469 53.2253 7.55404 46.6855 11.1309 40.5996C14.7077 34.5137 18.9785 28.9883 23.9434 24.0234C28.9082 19.0586 34.4603 14.7878 40.5996 11.2109C46.7389 7.63411 53.252 4.88477 60.1387 2.96289C67.0254 1.04102 74.3125 0.0533854 82 0ZM82 153.75C88.5664 153.75 94.8926 152.896 100.979 151.188C107.064 149.479 112.777 147.077 118.115 143.98C123.454 140.884 128.312 137.12 132.689 132.689C137.067 128.258 140.804 123.427 143.9 118.195C146.997 112.964 149.426 107.251 151.188 101.059C152.949 94.8659 153.803 88.513 153.75 82C153.75 75.4336 152.896 69.1074 151.188 63.0215C149.479 56.9355 147.077 51.2233 143.98 45.8848C140.884 40.5462 137.12 35.6882 132.689 31.3105C128.258 26.9329 123.427 23.196 118.195 20.0996C112.964 17.0033 107.251 14.5742 101.059 12.8125C94.8659 11.0508 88.513 10.1966 82 10.25C75.4336 10.25 69.1074 11.1042 63.0215 12.8125C56.9355 14.5208 51.2233 16.9232 45.8848 20.0195C40.5462 23.1159 35.6882 26.8796 31.3105 31.3105C26.9329 35.7415 23.196 40.5729 20.0996 45.8047C17.0033 51.0365 14.5742 56.7487 12.8125 62.9414C11.0508 69.1341 10.1966 75.487 10.25 82C10.25 88.5664 11.1042 94.8926 12.8125 100.979C14.5208 107.064 16.9232 112.777 20.0195 118.115C23.1159 123.454 26.8796 128.312 31.3105 132.689C35.7415 137.067 40.5729 140.804 45.8047 143.9C51.0365 146.997 56.7487 149.426 62.9414 151.188C69.1341 152.949 75.487 153.803 82 153.75Z" fill="#424551"/>
</svg>
