<svg width="12" height="16" viewBox="0 0 12 16" fill="none" xmlns="http://www.w3.org/2000/svg">
<path fill-rule="evenodd" clip-rule="evenodd" d="M11 6V5C11 2.243 8.757 0 6 0C3.243 0 1 2.243 1 5V6C0.734784 6 0.48043 6.10536 0.292893 6.29289C0.105357 6.48043 0 6.73478 0 7V14.5C0 14.8978 0.158035 15.2794 0.43934 15.5607C0.720644 15.842 1.10218 16 1.5 16H10.5C10.8978 16 11.2794 15.842 11.5607 15.5607C11.842 15.2794 12 14.8978 12 14.5V7C12 6.73478 11.8946 6.48043 11.7071 6.29289C11.5196 6.10536 11.2652 6 11 6ZM5 13H7V9H5V13ZM9 6H3V5C3 3.346 4.346 2 6 2C7.654 2 9 3.346 9 5V6Z" fill="#5C5F62"/>
</svg>
