<svg width="12" height="7" viewBox="0 0 12 7" fill="none" xmlns="http://www.w3.org/2000/svg">
<path d="M5.49258 0.19006L0.190318 5.49242C0.0675846 5.61505 -3.0503e-05 5.77876 -3.05051e-05 5.95332C-3.05072e-05 6.12788 0.0675846 6.29159 0.190318 6.41423L0.580703 6.80471C0.835083 7.0588 1.24852 7.0588 1.50252 6.80471L5.95504 2.35219L10.4125 6.80965C10.5352 6.93229 10.6988 7 10.8733 7C11.048 7 11.2116 6.93229 11.3344 6.80965L11.7247 6.41917C11.8474 6.29644 11.915 6.13282 11.915 5.95826C11.915 5.7837 11.8474 5.61999 11.7247 5.49736L6.41759 0.19006C6.29447 0.0671321 6.13008 -0.000385688 5.95533 1.50153e-06C5.77989 -0.000385692 5.6156 0.0671321 5.49258 0.19006Z" fill="#245949"/>
</svg>
