<svg width="42" height="32" viewBox="0 0 42 32" fill="none" xmlns="http://www.w3.org/2000/svg">
<path d="M8.02593 15.9C8.49259 15.8333 9.12593 15.8 9.92593 15.8C12.4593 15.8 14.3593 16.5333 15.6259 18C16.9593 19.4 17.6259 21.1667 17.6259 23.3C17.6259 25.5667 16.8593 27.4667 15.3259 29C13.8593 30.5333 11.8259 31.3 9.22593 31.3C6.55926 31.3 4.42593 30.5667 2.82593 29.1C1.22593 27.5667 0.425928 25.3667 0.425928 22.5C0.425928 18.6333 1.59259 14.7333 3.92593 10.8C6.25926 6.8 9.12593 3.46666 12.5259 0.799999L14.5259 2.9C10.1926 7.5 8.02593 11.8333 8.02593 15.9ZM31.4259 15.9C31.8926 15.8333 32.5259 15.8 33.3259 15.8C35.8593 15.8 37.7593 16.5333 39.0259 18C40.3593 19.4 41.0259 21.1667 41.0259 23.3C41.0259 25.5667 40.2593 27.4667 38.7259 29C37.2593 30.5333 35.2259 31.3 32.6259 31.3C29.9593 31.3 27.8259 30.5667 26.2259 29.1C24.6259 27.5667 23.8259 25.3667 23.8259 22.5C23.8259 18.6333 24.9926 14.7333 27.3259 10.8C29.6593 6.8 32.5259 3.46666 35.9259 0.799999L37.9259 2.9C33.5926 7.5 31.4259 11.8333 31.4259 15.9Z" fill="#8B9467"/>
</svg>
